<svg width="500" height="500" viewBox="0 0 500 500" fill="none" xmlns="http://www.w3.org/2000/svg">
<path d="M343.999 239.4L329.199 239.7L321.699 239.8C319.199 239.8 316.699 239.8 314.199 239.9H313.799V239.5L313.699 226.9V226.4H314.199L329.099 226.5C334.099 226.5 339.099 226.6 343.999 226.7H344.299V227C344.299 229.1 344.199 231.3 344.199 233.4L343.999 239.4ZM343.999 239.4L343.899 233C343.899 230.9 343.799 228.8 343.799 226.7L344.099 227C339.099 227.1 334.099 227.2 329.199 227.2L314.299 227.3L314.799 226.8L314.699 239.4L314.299 239C316.799 239 319.199 239 321.699 239.1L329.099 239.2L343.999 239.4Z" fill="#EBEBEB"/>
<path d="M423.199 181L429.099 171.5L426.199 169.7C425.299 169.2 424.899 168.2 424.999 167.2C424.999 166.6 425.099 166.1 425.099 165.5C425.099 164.5 425.599 163.6 426.499 163.1L429.499 161.5L424.199 151.7L421.199 153.3C420.299 153.8 419.199 153.7 418.399 153.1C417.899 152.8 417.499 152.5 416.999 152.2C416.099 151.7 415.599 150.8 415.599 149.8L415.699 146.4L404.499 146.1L404.399 149.5C404.399 150.5 403.799 151.4 402.799 151.8C402.599 151.9 402.299 152 402.099 152.2C401.899 152.3 401.599 152.5 401.399 152.6C400.499 153.1 399.499 153.1 398.599 152.6L395.699 150.8L389.799 160.3L392.699 162.1C393.599 162.6 393.999 163.6 393.899 164.6C393.899 165.2 393.799 165.7 393.799 166.3C393.799 167.3 393.299 168.2 392.399 168.7L389.399 170.3L394.699 180.1L397.699 178.5C398.599 178 399.599 178.1 400.499 178.7C400.999 179 401.399 179.3 401.899 179.6C402.799 180.1 403.299 181 403.299 182L403.199 185.4L414.399 185.7L414.499 182.3C414.499 181.3 415.099 180.4 416.099 180C416.299 179.9 416.599 179.8 416.799 179.6C416.999 179.5 417.299 179.3 417.499 179.2C418.399 178.7 419.399 178.6 420.299 179.2L423.199 181ZM413.799 173.9C409.299 176.3 403.799 174.6 401.399 170.2C398.999 165.7 400.699 160.2 405.099 157.8C409.599 155.4 415.099 157.1 417.499 161.5C419.899 166 418.199 171.5 413.799 173.9Z" fill="#EBEBEB"/>
<path d="M86.8 265.9L92.7 256.4L89.8 254.6C88.9 254.1 88.5 253.1 88.6 252.1C88.6 251.5 88.7 251 88.7 250.4C88.7 249.4 89.2 248.5 90.1 248L93.1 246.4L87.8 236.6L84.8 238.2C83.9 238.7 82.8 238.6 82 238C81.5 237.7 81.1 237.4 80.6 237.1C79.7 236.6 79.2 235.7 79.2 234.7L79.3 231.3L68.1 231L68 234.4C68 235.4 67.4 236.3 66.4 236.7C66.2 236.8 65.9 236.9 65.7 237.1C65.5 237.2 65.2 237.4 65 237.5C64.1 238 63.1 238 62.2 237.5L59.3 235.7L53.4 245.2L56.3 247C57.2 247.5 57.6 248.5 57.5 249.5C57.5 250.1 57.4 250.6 57.4 251.2C57.4 252.2 56.9 253.1 56 253.6L53 255.2L58.3 265L61.3 263.4C62.2 262.9 63.2 263 64.1 263.6C64.6 263.9 65 264.2 65.5 264.5C66.4 265 66.9 265.9 66.9 266.9L66.8 270.3L78 270.6L78.1 267.2C78.1 266.2 78.7 265.3 79.7 264.9C79.9 264.8 80.2 264.7 80.4 264.5C80.6 264.4 80.9 264.2 81.1 264.1C82 263.6 83 263.5 83.9 264.1L86.8 265.9ZM77.4 258.9C72.9 261.3 67.4 259.6 65 255.2C62.6 250.7 64.3 245.2 68.7 242.8C73.2 240.4 78.7 242.1 81.1 246.5C83.5 250.9 81.8 256.5 77.4 258.9Z" fill="#EBEBEB"/>
<path d="M215.9 106.7L212 100L209.9 101.2C209.3 101.6 208.5 101.5 207.9 101.1C207.6 100.9 207.2 100.7 206.9 100.5C206.3 100.2 205.9 99.5 205.9 98.8V96.4H198.1V98.8C198.1 99.5 197.7 100.1 197.1 100.5C196.8 100.7 196.4 100.9 196.1 101.1C195.5 101.5 194.8 101.5 194.1 101.2L192 100L188.1 106.8L190.2 108C190.8 108.4 191.1 109 191.1 109.7C191.1 109.9 191.1 110.1 191.1 110.3C191.1 110.5 191.1 110.7 191.1 110.9C191.1 111.6 190.8 112.3 190.2 112.6L188.1 113.8L192 120.6L194.1 119.4C194.7 119 195.5 119.1 196.1 119.5C196.4 119.7 196.8 119.9 197.1 120.1C197.7 120.4 198.1 121.1 198.1 121.8V124.2H205.9V121.8C205.9 121.1 206.3 120.5 206.9 120.1C207.2 119.9 207.6 119.7 207.9 119.5C208.5 119.1 209.2 119.1 209.9 119.4L212 120.6L215.9 113.8L213.8 112.6C213.2 112.2 212.9 111.6 212.9 110.9C212.9 110.7 212.9 110.5 212.9 110.3C212.9 110.1 212.9 109.9 212.9 109.7C212.9 109 213.2 108.3 213.8 108L215.9 106.7ZM208.4 110.2C208.4 113.7 205.5 116.6 202 116.6C198.5 116.6 195.6 113.7 195.6 110.2C195.6 106.7 198.5 103.8 202 103.8C205.5 103.8 208.4 106.7 208.4 110.2Z" fill="#EBEBEB"/>
<path d="M88.8004 303.8C75.7004 316.6 73.5004 336.4 76.3004 353.7C76.4004 354.1 77.0003 354 77.0003 353.6C77.0003 349.7 76.9004 345.7 76.9004 341.8C77.0004 341.6 77.0003 341.5 77.1003 341.3C80.5003 338.8 83.6003 336 85.6003 332.2C87.8003 327.9 88.6004 323.1 90.3004 318.6C90.5004 318.2 90.0003 318.3 89.7003 318.5C81.8003 324.4 79.2004 330.7 76.9004 339.1C77.0004 334.7 77.3004 330.3 78.3004 326C80.0004 318 83.4003 310.1 89.2003 304.1C89.4003 304 89.1004 303.6 88.8004 303.8Z" fill="#434343"/>
<path d="M91.3004 305.3C93.5004 305.4 95.0004 309 96.7004 310C97.6004 310.6 98.5004 310.5 99.2004 309.6C100.9 307.2 98.6004 304.2 96.3004 302.5C97.9004 303.2 99.2004 304.3 101 304.6C102 304.8 102.9 304.4 103.1 303.3C103.9 300 99.7004 298.5 96.9004 298.5C98.3004 297.5 102.2 294.9 100.1 293.7C98.0004 292.4 93.3004 296.1 91.8004 297.4C89.6004 299.2 86.9004 301.9 86.8004 304.7C86.7004 308 89.6004 306 91.3004 305.3Z" fill="#E94348"/>
<path opacity="0.1" d="M91.3004 305.3C93.5004 305.4 95.0004 309 96.7004 310C97.6004 310.6 98.5004 310.5 99.2004 309.6C100.9 307.2 98.6004 304.2 96.3004 302.5C97.9004 303.2 99.2004 304.3 101 304.6C102 304.8 102.9 304.4 103.1 303.3C103.9 300 99.7004 298.5 96.9004 298.5C98.3004 297.5 102.2 294.9 100.1 293.7C98.0004 292.4 93.3004 296.1 91.8004 297.4C89.6004 299.2 86.9004 301.9 86.8004 304.7C86.7004 308 89.6004 306 91.3004 305.3Z" fill="#434343"/>
<path d="M90.6001 305.9C93.5001 304.6 99.0001 306.5 99.5001 305.4C100.5 303.2 96.0001 301.7 93.7001 301.4C95.9001 300.8 100.1 299.9 100 297.7C99.8001 295.1 93.6001 297.3 90.4001 299.8C86.4001 302.9 86.4001 305.8 87.1001 306.4C87.9001 307.2 90.2001 306.1 90.6001 305.9Z" fill="#FF595E"/>
<path d="M59.0998 302.6C72.5998 314.9 75.5998 334.6 73.4998 352C73.3998 352.4 72.7998 352.3 72.7998 351.9C72.5998 348 72.5998 344 72.4998 340.1C72.3998 339.9 72.3998 339.8 72.2998 339.6C68.7998 337.3 65.5998 334.6 63.4998 330.8C61.1998 326.6 60.0998 321.8 58.2998 317.4C58.0998 317 58.5998 317.1 58.8998 317.3C67.0998 322.9 69.7998 329.1 72.3998 337.4C72.0998 333 71.5998 328.7 70.4998 324.3C68.4998 316.4 64.7998 308.6 58.7998 302.9C58.4998 302.7 58.7998 302.4 59.0998 302.6Z" fill="#434343"/>
<path d="M56.7 304.2C54.5 304.4 53.2 308 51.5 309.1C50.6 309.7 49.7 309.7 49 308.8C47.2 306.4 49.4 303.4 51.6 301.6C50 302.3 48.7 303.5 47 303.9C46 304.1 45.1 303.8 44.9 302.7C44 299.4 48.1 297.8 50.9 297.6C49.5 296.7 45.4 294.2 47.5 292.9C49.6 291.5 54.4 295.1 55.9 296.2C58.2 297.9 60.9 300.5 61.1 303.3C61.4 306.7 58.4 304.8 56.7 304.2Z" fill="#E94348"/>
<path opacity="0.1" d="M56.7 304.2C54.5 304.4 53.2 308 51.5 309.1C50.6 309.7 49.7 309.7 49 308.8C47.2 306.4 49.4 303.4 51.6 301.6C50 302.3 48.7 303.5 47 303.9C46 304.1 45.1 303.8 44.9 302.7C44 299.4 48.1 297.8 50.9 297.6C49.5 296.7 45.4 294.2 47.5 292.9C49.6 291.5 54.4 295.1 55.9 296.2C58.2 297.9 60.9 300.5 61.1 303.3C61.4 306.7 58.4 304.8 56.7 304.2Z" fill="#434343"/>
<path d="M57.3 304.7C54.4 303.5 48.9 305.6 48.4 304.5C47.4 302.3 51.7 300.6 54.1 300.3C51.9 299.8 47.6 299 47.7 296.9C47.8 294.3 54.1 296.3 57.4 298.6C61.5 301.5 61.6 304.5 61 305.1C60.1 305.9 57.8 304.9 57.3 304.7Z" fill="#FF595E"/>
<path d="M72.8998 335C73.8998 341.5 75.0998 348.2 77.0998 354.4C77.2998 355 78.0998 354.8 77.9998 354.2C77.0998 348.2 75.4998 342.3 74.5998 336.3C73.6998 330.2 73.1998 324.1 73.5998 318C74.1998 307.9 76.8998 297.2 83.4998 289.3C83.5998 289.1 83.2998 288.8 83.1998 289C69.9998 304.5 72.0998 323.3 72.0998 325C70.1998 318.6 68.2998 311.3 61.2998 304.9C60.9998 304.6 60.7998 304.8 60.7998 305.2C62.0998 317 65.2998 323.2 72.1998 329.5C72.3998 331.3 72.5998 333.2 72.8998 335Z" fill="#434343"/>
<path d="M83.6002 291.1C86.0002 290 89.2002 293.1 91.6002 293.3C92.8002 293.4 93.8002 292.9 94.0002 291.6C94.6002 288.2 90.6002 286.3 87.4002 285.7C89.4002 285.6 91.4002 286.1 93.3002 285.6C94.5002 285.3 95.1002 284.5 94.8002 283.2C93.9002 279.4 88.9002 279.9 85.9002 281.3C86.8002 279.6 89.6002 274.9 86.8002 274.6C83.9002 274.3 81.0002 280.5 80.1002 282.6C78.7002 285.6 77.3002 289.7 78.6002 292.7C80.2002 296.3 82.2002 292.7 83.6002 291.1Z" fill="#E94348"/>
<path opacity="0.1" d="M83.6002 291.1C86.0002 290 89.2002 293.1 91.6002 293.3C92.8002 293.4 93.8002 292.9 94.0002 291.6C94.6002 288.2 90.6002 286.3 87.4002 285.7C89.4002 285.6 91.4002 286.1 93.3002 285.6C94.5002 285.3 95.1002 284.5 94.8002 283.2C93.9002 279.4 88.9002 279.9 85.9002 281.3C86.8002 279.6 89.6002 274.9 86.8002 274.6C83.9002 274.3 81.0002 280.5 80.1002 282.6C78.7002 285.6 77.3002 289.7 78.6002 292.7C80.2002 296.3 82.2002 292.7 83.6002 291.1Z" fill="#434343"/>
<path d="M83.3006 292C85.6006 289.2 92.3006 288.4 92.2006 287C92.1006 284.2 86.7006 284.9 84.1006 285.8C86.1006 284.1 90.0006 281 88.8006 278.9C87.3006 276.3 81.9006 281.8 79.9006 285.9C77.3006 291.1 78.8006 294.2 79.8006 294.5C81.1006 294.8 82.9006 292.5 83.3006 292Z" fill="#FF595E"/>
<path d="M64.3004 338.6L58.4004 383H93.8004C93.1004 379.1 86.5004 338.5 86.5004 338.5L64.3004 338.6Z" fill="#FFBF1E"/>
<path d="M43.4004 383.1L95.0004 382.9L146.7 382.8L250 382.6L353.3 382.8L405 382.9L456.6 383.1L405 383.4L353.3 383.5L250 383.6L146.7 383.5L95.0004 383.4L43.4004 383.1Z" fill="#434343"/>
<path d="M250 470.1C332.346 470.1 399.1 460.653 399.1 449C399.1 437.347 332.346 427.9 250 427.9C167.655 427.9 100.9 437.347 100.9 449C100.9 460.653 167.655 470.1 250 470.1Z" fill="#EBEBEB"/>
<path d="M157.6 227.7L151.4 203.3L102.4 215.8L95.9004 190.3L135.1 101L154.5 96.1L173.4 170.5L189.1 166.5L195.6 192.2L179.9 196.2L186.1 220.6L157.6 227.7ZM124 182.9L148.3 176.7L140.3 145.1L124 182.9Z" fill="#434343"/>
<path d="M298 146.1C298 154.2 296.8 161.6 294.3 168.5C291.8 175.3 288.5 181.2 284.2 186.2C279.9 191.2 274.8 195 269 197.8C263.2 200.6 256.8 201.9 250 201.9C243.1 201.9 236.8 200.5 230.9 197.8C225 195 219.9 191.2 215.6 186.2C211.3 181.2 208 175.3 205.6 168.5C203.2 161.7 202 154.2 202 146.1C202 138 203.2 130.6 205.6 123.7C208 116.9 211.3 111 215.6 106C219.9 101 225 97.1 230.9 94.3C236.8 91.5 243.2 90.1 250 90.1C256.9 90.1 263.2 91.5 269 94.3C274.8 97.1 279.9 101 284.2 106C288.5 111 291.9 116.9 294.3 123.7C296.8 130.6 298 138 298 146.1ZM268.4 146.1C268.4 137.5 266.7 130.6 263.2 125.2C259.8 119.9 255.4 117.2 250 117.2C244.4 117.2 239.8 119.9 236.5 125.2C233.1 130.5 231.4 137.5 231.4 146.1C231.4 154.7 233.1 161.6 236.5 166.9C239.9 172.2 244.4 174.8 250 174.8C255.4 174.8 259.8 172.2 263.2 166.9C266.7 161.6 268.4 154.7 268.4 146.1Z" fill="#434343"/>
<path d="M350.8 223L354.8 198.1L304.9 190L309.1 164L380.6 97.7L400.4 100.9L388.1 176.6L404.1 179.2L399.9 205.4L383.9 202.8L379.9 227.7L350.8 223ZM337.9 168.5L362.6 172.5L367.8 140.4L337.9 168.5Z" fill="#434343"/>
<path d="M208.701 72.5C206.601 72.5 204.701 72.1 203.001 71.3C201.301 70.5 199.801 69.4 198.601 68C197.401 66.6 196.401 65.1 195.801 63.3C195.101 61.5 194.801 59.8 194.801 57.9C194.801 56 195.201 54.2 195.901 52.4C196.601 50.6 197.601 49.1 198.801 47.8C200.101 46.5 201.501 45.4 203.301 44.6C205.001 43.8 206.901 43.4 208.901 43.4C211.001 43.4 212.901 43.8 214.601 44.7C216.301 45.5 217.801 46.7 219.001 48C220.201 49.4 221.201 50.9 221.801 52.7C222.501 54.5 222.801 56.2 222.801 58C222.801 59.9 222.401 61.7 221.701 63.5C221.001 65.2 220.001 66.8 218.801 68.1C217.601 69.4 216.101 70.5 214.401 71.3C212.601 72.1 210.701 72.5 208.701 72.5ZM200.401 57.9C200.401 59.1 200.601 60.3 201.001 61.5C201.401 62.7 201.901 63.7 202.601 64.6C203.301 65.5 204.201 66.2 205.201 66.7C206.201 67.2 207.401 67.5 208.701 67.5C210.001 67.5 211.201 67.2 212.301 66.7C213.301 66.1 214.201 65.4 214.901 64.5C215.601 63.6 216.201 62.6 216.501 61.4C216.901 60.3 217.001 59.1 217.001 57.9C217.001 56.7 216.801 55.5 216.401 54.3C216.001 53.1 215.501 52.1 214.701 51.2C214.001 50.3 213.101 49.6 212.101 49.1C211.101 48.6 209.901 48.3 208.601 48.3C207.301 48.3 206.101 48.6 205.001 49.1C203.901 49.7 203.101 50.4 202.401 51.3C201.701 52.2 201.201 53.2 200.801 54.4C200.501 55.6 200.401 56.7 200.401 57.9Z" fill="#434343"/>
<path d="M236.201 72.7C234.501 72.7 232.901 72.4 231.601 71.8C230.201 71.2 229.101 70.4 228.101 69.4C227.101 68.4 226.401 67.2 225.901 65.9C225.401 64.6 225.101 63.2 225.101 61.7C225.101 60.2 225.401 58.8 225.901 57.5C226.401 56.2 227.101 55 228.101 54C229.101 53 230.201 52.2 231.601 51.6C233.001 51 234.501 50.7 236.201 50.7C237.901 50.7 239.501 51 240.801 51.6C242.201 52.2 243.301 53 244.301 54C245.301 55 246.001 56.2 246.501 57.5C247.001 58.8 247.301 60.2 247.301 61.7C247.301 63.2 247.001 64.5 246.501 65.9C246.001 67.2 245.301 68.4 244.301 69.4C243.401 70.4 242.201 71.2 240.801 71.8C239.501 72.4 237.901 72.7 236.201 72.7ZM230.701 61.7C230.701 62.6 230.801 63.5 231.101 64.3C231.401 65.1 231.801 65.7 232.301 66.3C232.801 66.9 233.401 67.3 234.101 67.6C234.801 67.9 235.501 68.1 236.301 68.1C237.101 68.1 237.801 67.9 238.501 67.6C239.201 67.3 239.801 66.9 240.301 66.3C240.801 65.7 241.201 65.1 241.501 64.3C241.801 63.5 241.901 62.7 241.901 61.7C241.901 60.8 241.801 59.9 241.501 59.2C241.201 58.4 240.801 57.7 240.301 57.2C239.801 56.6 239.201 56.2 238.501 55.9C237.801 55.6 237.101 55.4 236.301 55.4C235.501 55.4 234.801 55.6 234.101 55.9C233.401 56.2 232.801 56.7 232.301 57.2C231.801 57.8 231.401 58.4 231.101 59.2C230.801 60 230.701 60.8 230.701 61.7Z" fill="#434343"/>
<path d="M263.6 72.7C261.9 72.7 260.5 72.3 259.2 71.6C258 70.9 257 69.9 256.3 68.6V80.9H250.9V51.1H255.6V54.7C256.4 53.5 257.4 52.5 258.6 51.8C259.8 51.1 261.3 50.7 262.9 50.7C264.3 50.7 265.6 51 266.9 51.6C268.1 52.2 269.2 53 270 53.9C270.9 54.9 271.6 56 272.1 57.4C272.6 58.7 272.8 60.1 272.8 61.6C272.8 63.1 272.6 64.6 272.1 65.9C271.6 67.2 271 68.4 270.2 69.4C269.4 70.4 268.4 71.2 267.3 71.7C266.2 72.4 265 72.7 263.6 72.7ZM261.8 68.1C262.6 68.1 263.4 67.9 264 67.6C264.7 67.3 265.3 66.8 265.8 66.2C266.3 65.6 266.7 64.9 266.9 64.1C267.2 63.3 267.3 62.5 267.3 61.7C267.3 60.8 267.2 60 266.9 59.2C266.6 58.4 266.2 57.8 265.7 57.2C265.2 56.6 264.6 56.2 263.8 55.9C263.1 55.6 262.3 55.4 261.5 55.4C261 55.4 260.5 55.5 259.9 55.7C259.4 55.9 258.9 56.1 258.4 56.4C257.9 56.7 257.5 57.1 257.2 57.5C256.8 57.9 256.6 58.4 256.4 58.9V63.9C256.9 65.1 257.6 66.1 258.6 66.9C259.6 67.7 260.6 68.1 261.8 68.1Z" fill="#434343"/>
<path d="M284.5 72.7C282.7 72.7 281 72.4 279.3 71.9C277.6 71.3 276.1 70.5 274.9 69.5L276.9 66.1C278.2 67 279.5 67.7 280.7 68.2C281.9 68.7 283.1 68.9 284.4 68.9C285.5 68.9 286.3 68.7 286.9 68.3C287.5 67.9 287.8 67.3 287.8 66.6C287.8 65.9 287.4 65.3 286.7 64.9C286 64.5 284.8 64.1 283.1 63.7C281.7 63.3 280.6 63 279.6 62.6C278.6 62.3 277.8 61.9 277.3 61.4C276.7 61 276.3 60.4 276 59.9C275.7 59.3 275.6 58.6 275.6 57.8C275.6 56.7 275.8 55.8 276.2 54.9C276.6 54 277.2 53.3 278 52.7C278.8 52.1 279.6 51.6 280.6 51.3C281.6 51 282.7 50.8 283.9 50.8C285.5 50.8 287 51 288.4 51.5C289.8 52 291.1 52.7 292.2 53.7L290 57C288.9 56.2 287.9 55.6 286.9 55.2C285.9 54.8 284.9 54.6 283.9 54.6C283 54.6 282.2 54.8 281.6 55.2C281 55.6 280.7 56.2 280.7 57C280.7 57.4 280.8 57.7 280.9 57.9C281 58.1 281.3 58.4 281.6 58.5C281.9 58.7 282.3 58.9 282.9 59C283.4 59.2 284.1 59.4 284.9 59.5C286.4 59.9 287.6 60.3 288.6 60.6C289.6 61 290.5 61.4 291.1 61.9C291.8 62.4 292.2 62.9 292.6 63.6C292.9 64.2 293.1 65 293.1 65.9C293.1 68 292.3 69.6 290.8 70.8C289.3 72.1 287.2 72.7 284.5 72.7Z" fill="#434343"/>
<path d="M297.701 61.5V43.3H303.101V61.5H297.701ZM297.701 72.3V66.2H303.101V72.3H297.701Z" fill="#434343"/>
<path d="M270.6 313.8H235.1V316.7H270.6V313.8Z" fill="#434343"/>
<path d="M270.6 317.6H235.1V320.5H270.6V317.6Z" fill="#434343"/>
<path d="M270.6 321.4H235.1V324.3H270.6V321.4Z" fill="#434343"/>
<path d="M270.6 325.2H235.1V328.1H270.6V325.2Z" fill="#434343"/>
<path d="M270.6 329H235.1V331.9H270.6V329Z" fill="#434343"/>
<path d="M312 352.011C312.1 351.911 327.2 337.911 344.9 342.711C363 347.611 378 374.911 378.1 375.111L383.1 372.411C382.4 371.211 366.8 342.711 346.3 337.211C325.4 331.611 308.7 347.211 308 347.911L312 352.011Z" fill="#FFBF1E"/>
<path opacity="0.4" d="M312 352.011C312.1 351.911 327.2 337.911 344.9 342.711C363 347.611 378 374.911 378.1 375.111L383.1 372.411C382.4 371.211 366.8 342.711 346.3 337.211C325.4 331.611 308.7 347.211 308 347.911L312 352.011Z" fill="white"/>
<path d="M371.4 402.611L382.3 396.911C381.3 394.911 380 391.511 379.8 388.511C379.6 384.511 381.1 383.111 382.9 382.211C386.7 380.211 389 381.011 390.5 381.911C392.7 383.211 394.9 385.811 396.7 389.311L407.5 383.611C404.5 378.011 400.9 373.911 396.7 371.411C392.5 368.911 385.7 366.911 377.1 371.411C370.4 374.911 367 381.311 367.5 389.311C367.9 395.511 370.6 401.111 371.4 402.611Z" fill="#FFBF1E"/>
<path d="M286 404.6H218.5V407.5H286V404.6Z" fill="#434343"/>
<path d="M286 408.4H218.5V411.3H286V408.4Z" fill="#434343"/>
<path d="M286 412.2H218.5V415.1H286V412.2Z" fill="#434343"/>
<path d="M286 416H218.5V418.9H286V416Z" fill="#434343"/>
<path d="M286 419.8H218.5V422.7H286V419.8Z" fill="#434343"/>
<path d="M188.8 289.8C188.8 289.4 174 284.4 174 284.4L174.9 233.5L194.5 229.3L188.8 289.8Z" fill="#FFBF1E"/>
<path opacity="0.2" d="M188.8 289.8C188.8 289.4 174 284.4 174 284.4L174.9 233.5L194.5 229.3L188.8 289.8Z" fill="#434343"/>
<path d="M324.5 309.8C324.6 309.4 340.2 309.9 340.2 309.9L356.9 261.8L339.9 251.1L324.5 309.8Z" fill="#FFBF1E"/>
<path opacity="0.2" d="M324.5 309.8C324.6 309.4 340.2 309.9 340.2 309.9L356.9 261.8L339.9 251.1L324.5 309.8Z" fill="#434343"/>
<path d="M186 308.5C186 308.5 191.5 226.2 196.3 199.1C196.3 199.1 295.7 206.6 349.4 227.1C349.4 227.1 321.7 323.2 320.3 328C320.3 328.1 250.3 314.3 186 308.5Z" fill="#FFBF1E"/>
<path opacity="0.2" d="M242.251 288.297C253.832 277.884 254.779 260.054 244.366 248.473C233.953 236.892 216.123 235.945 204.542 246.358C192.961 256.771 192.014 274.601 202.427 286.182C212.84 297.763 230.67 298.71 242.251 288.297Z" fill="#434343"/>
<path d="M244.534 275.341C248.953 263.669 243.072 250.624 231.399 246.205C219.726 241.787 206.682 247.668 202.263 259.341C197.845 271.013 203.725 284.058 215.398 288.476C227.071 292.895 240.116 287.014 244.534 275.341Z" fill="#434343"/>
<path d="M222.099 258.956L216.769 258.093L215.905 263.423L221.235 264.287L222.099 258.956Z" fill="#FFBF1E"/>
<path d="M217.691 252.862L212.36 251.998L211.497 257.328L216.827 258.192L217.691 252.862Z" fill="#FFBF1E"/>
<path d="M238.795 256.25L233.465 255.386L232.601 260.717L237.932 261.58L238.795 256.25Z" fill="#FFBF1E"/>
<path d="M214.299 273.863L208.969 273L208.105 278.33L213.436 279.194L214.299 273.863Z" fill="#FFBF1E"/>
<path d="M235.388 277.35L230.058 276.487L229.194 281.817L234.524 282.681L235.388 277.35Z" fill="#FFBF1E"/>
<path d="M220.394 269.455L215.063 268.591L214.2 273.922L219.53 274.785L220.394 269.455Z" fill="#FFBF1E"/>
<path d="M226.597 265.065L221.267 264.201L220.403 269.531L225.733 270.395L226.597 265.065Z" fill="#FFBF1E"/>
<path d="M232.685 260.757L227.354 259.894L226.491 265.224L231.821 266.087L232.685 260.757Z" fill="#FFBF1E"/>
<path d="M231.001 271.154L225.671 270.29L224.807 275.62L230.138 276.484L231.001 271.154Z" fill="#FFBF1E"/>
<path d="M320.978 296.97C330.849 284.923 329.085 267.155 317.039 257.284C304.992 247.413 287.224 249.176 277.353 261.223C267.482 273.27 269.245 291.038 281.292 300.909C293.339 310.78 311.107 309.016 320.978 296.97Z" fill="#FFBF1E"/>
<path opacity="0.2" d="M320.978 296.97C330.849 284.923 329.085 267.155 317.039 257.284C304.992 247.413 287.224 249.176 277.353 261.223C267.482 273.27 269.245 291.038 281.292 300.909C293.339 310.78 311.107 309.016 320.978 296.97Z" fill="#434343"/>
<path opacity="0.2" d="M326.7 285.7C326.6 286.3 326.4 286.8 326.3 287.3L271.3 275.6C271.4 274.6 271.6 273.6 271.8 272.6C275.4 257.4 290.6 248.1 305.8 251.7C320.9 255.3 330.3 270.5 326.7 285.7Z" fill="#434343"/>
<path d="M307.891 299.957C319.408 295.146 324.843 281.909 320.032 270.392C315.22 258.875 301.983 253.44 290.466 258.251C278.95 263.063 273.514 276.3 278.326 287.817C283.137 299.334 296.374 304.769 307.891 299.957Z" fill="#434343"/>
<path d="M304.916 266.781L299.662 265.533L293.489 291.509L298.743 292.758L304.916 266.781Z" fill="#FFBF1E"/>
<path d="M328.3 285.1L270.5 271.4C274.3 255.4 290.3 245.6 306.3 249.4C322.2 253.2 332.1 269.2 328.3 285.1Z" fill="#FFBF1E"/>
<path opacity="0.2" d="M328.3 285.1L270.5 271.4C274.3 255.4 290.3 245.6 306.3 249.4C322.2 253.2 332.1 269.2 328.3 285.1Z" fill="#434343"/>
<path opacity="0.1" d="M250.1 295.9C250.2 293.6 251.1 291.4 252.7 289.5C253.5 288.6 254.6 287.9 255.8 287.4C257 287 258.3 286.9 259.5 287C260.7 287.1 262 287.6 263 288.4C264 289.2 264.8 290.2 265.3 291.4C266.2 293.6 266.3 296 265.9 298.2C265.5 296 265 293.8 263.9 292.1C262.9 290.3 261.2 289.2 259.3 289C257.3 288.8 255.4 289.3 253.8 290.6C252.2 292 251 293.9 250.1 295.9Z" fill="#434343"/>
<path d="M193.7 238.3C193.9 235.3 194.3 232.3 194.6 229.3C194.9 226.3 195.3 223.3 195.6 220.3C195.9 217.3 196.3 214.3 196.7 211.3C197.1 208.3 197.5 205.3 197.9 202.3L198 201.5L198.8 201.6C205.3 202 211.8 202.5 218.3 203.2C221.5 203.5 224.8 203.9 228 204.3C231.2 204.8 234.5 205.2 237.7 205.8L218.2 204.6L198.7 203.3L199.6 202.6C199.2 205.6 198.7 208.6 198.3 211.6C197.8 214.6 197.4 217.6 196.9 220.5C196.4 223.5 195.9 226.5 195.4 229.4C194.8 232.4 194.3 235.4 193.7 238.3Z" fill="white"/>
<path d="M198.4 261.2C199.1 257.6 200.7 254.1 202.9 251.1C203.5 250.3 204.1 249.6 204.7 248.9C205.4 248.2 206 247.6 206.7 246.9C207.4 246.3 208.2 245.7 208.9 245.1C209.7 244.6 210.5 244.1 211.3 243.6C212.2 243.2 213 242.8 213.9 242.4L216.6 241.5L219.4 240.9C220.3 240.8 221.3 240.7 222.2 240.7C226 240.6 229.7 241.4 233.1 242.8C229.5 242.1 225.9 241.7 222.3 242.1C218.8 242.4 215.3 243.5 212.2 245.2C209.1 246.9 206.3 249.2 204 251.9C201.7 254.6 199.8 257.7 198.4 261.2Z" fill="white"/>
<path d="M276.3 268.8C277.4 265.3 279.6 262.1 282.2 259.4C282.8 258.7 283.6 258.1 284.3 257.5C285 256.9 285.8 256.4 286.6 255.8C287.4 255.3 288.2 254.8 289 254.4C289.9 254 290.7 253.6 291.6 253.2C292.5 252.9 293.4 252.6 294.3 252.3L297.1 251.8L299.9 251.6C300.8 251.6 301.8 251.7 302.7 251.8C306.4 252.2 310 253.5 313.2 255.4C309.7 254.2 306.2 253.4 302.6 253.2C299 253 295.5 253.6 292.2 254.9C288.9 256.1 285.8 258.1 283.2 260.5C280.4 262.8 278.1 265.6 276.3 268.8Z" fill="white"/>
<path d="M189.1 359.3C181.9 359.3 166 357.7 155.8 344.6C142.8 327.8 147.5 295.7 147.7 294.3L153.4 295.2C153.4 295.5 148.9 326.3 160.4 341.1C171.7 355.6 192.1 353.5 192.3 353.5L192.9 359.2C192.7 359.1 191.3 359.3 189.1 359.3Z" fill="#FFBF1E"/>
<path opacity="0.4" d="M189.1 359.3C181.9 359.3 166 357.7 155.8 344.6C142.8 327.8 147.5 295.7 147.7 294.3L153.4 295.2C153.4 295.5 148.9 326.3 160.4 341.1C171.7 355.6 192.1 353.5 192.3 353.5L192.9 359.2C192.7 359.1 191.3 359.3 189.1 359.3Z" fill="white"/>
<path d="M155.1 299C154.1 299 153 298.9 151.9 298.7C142.4 297.2 138.1 291.4 136.3 286.9C134.4 282.4 134 276.9 135 270.6L147.1 272.6C146.5 276.5 146.7 279.9 147.6 282.2C148.3 283.9 149.6 285.9 153.9 286.5C155.8 286.8 157.9 286.6 160.1 283.3C161.8 280.7 162.8 277.3 163.2 275.1L175.3 277.1C175 278.8 173.8 284.9 170.3 290.1C166.6 296 161.2 299 155.1 299Z" fill="#FFBF1E"/>
<path d="M201.1 375.6C201.1 375.3 190.8 373.7 190.8 373.7L185.8 340.3L198.2 335.4L201.1 375.6Z" fill="#FFBF1E"/>
<path opacity="0.2" d="M201.1 375.6C201.1 375.3 190.8 373.7 190.8 373.7L185.8 340.3L198.2 335.4L201.1 375.6Z" fill="#434343"/>
<path d="M302.3 375.7C302.3 375.4 312.6 374 312.6 374L318.3 340.7L306 335.5L302.3 375.7Z" fill="#FFBF1E"/>
<path opacity="0.2" d="M302.3 375.7C302.3 375.4 312.6 374 312.6 374L318 340.5L306 335.5L302.3 375.7Z" fill="#434343"/>
<path d="M196.8 328C196.8 328 279.6 324.5 307.6 329.1C307.6 329.1 299.4 409.2 298.9 410.8C298.9 410.8 216.5 410.6 203.7 410.8C203.7 410.7 196.7 357.5 196.8 328Z" fill="#FFBF1E"/>
<path opacity="0.2" d="M222 349.9C222 349.9 267.2 348.1 282.5 350.5C282.5 350.5 278 390.9 277.8 391.7C277.8 391.7 232.8 391.6 225.8 391.7C225.7 391.6 222.6 364 222 349.9Z" fill="#434343"/>
<path opacity="0.2" d="M228.2 391.6C227.2 391.6 226.3 391.6 225.8 391.6C225.8 391.6 222.7 363.9 222 349.9C222 349.9 223 349.9 224.8 349.8L228.2 391.6Z" fill="#434343"/>
<path d="M241.5 359.9C239 359.1 236.3 360.5 235.5 363C234.7 365.5 236.1 368.2 238.6 369C241.1 369.8 243.8 368.4 244.6 365.9C245.4 363.4 244 360.7 241.5 359.9ZM244.1 365.7C243.4 367.9 241 369.2 238.8 368.5C236.6 367.8 235.3 365.4 236 363.2C236.7 361 239.1 359.7 241.3 360.4C243.5 361.1 244.8 363.5 244.1 365.7ZM241.5 359.9C239 359.1 236.3 360.5 235.5 363C234.7 365.5 236.1 368.2 238.6 369C241.1 369.8 243.8 368.4 244.6 365.9C245.4 363.4 244 360.7 241.5 359.9ZM244.1 365.7C243.4 367.9 241 369.2 238.8 368.5C236.6 367.8 235.3 365.4 236 363.2C236.7 361 239.1 359.7 241.3 360.4C243.5 361.1 244.8 363.5 244.1 365.7ZM241.5 359.9C239 359.1 236.3 360.5 235.5 363C234.7 365.5 236.1 368.2 238.6 369C241.1 369.8 243.8 368.4 244.6 365.9C245.4 363.4 244 360.7 241.5 359.9ZM244.1 365.7C243.4 367.9 241 369.2 238.8 368.5C236.6 367.8 235.3 365.4 236 363.2C236.7 361 239.1 359.7 241.3 360.4C243.5 361.1 244.8 363.5 244.1 365.7ZM243.1 354.8C237.8 353.1 232.1 356.1 230.4 361.4C228.7 366.7 231.7 372.4 237 374.1C242.3 375.8 248 372.8 249.7 367.5C251.4 362.2 248.4 356.5 243.1 354.8ZM245.3 366.1C244.4 369 241.3 370.7 238.3 369.7C235.4 368.8 233.8 365.7 234.7 362.7C235.6 359.8 238.7 358.2 241.7 359.1C244.6 360.1 246.3 363.2 245.3 366.1ZM244.6 365.9C245.4 363.4 244 360.7 241.5 359.9C239 359.1 236.3 360.5 235.5 363C234.7 365.5 236.1 368.2 238.6 369C241.1 369.8 243.8 368.4 244.6 365.9ZM244.1 365.7C243.4 367.9 241 369.2 238.8 368.5C236.6 367.8 235.3 365.4 236 363.2C236.7 361 239.1 359.7 241.3 360.4C243.5 361.1 244.8 363.5 244.1 365.7ZM241.5 359.9C239 359.1 236.3 360.5 235.5 363C234.7 365.5 236.1 368.2 238.6 369C241.1 369.8 243.8 368.4 244.6 365.9C245.4 363.4 244 360.7 241.5 359.9ZM244.1 365.7C243.4 367.9 241 369.2 238.8 368.5C236.6 367.8 235.3 365.4 236 363.2C236.7 361 239.1 359.7 241.3 360.4C243.5 361.1 244.8 363.5 244.1 365.7ZM241.5 359.9C239 359.1 236.3 360.5 235.5 363C234.7 365.5 236.1 368.2 238.6 369C241.1 369.8 243.8 368.4 244.6 365.9C245.4 363.4 244 360.7 241.5 359.9ZM244.1 365.7C243.4 367.9 241 369.2 238.8 368.5C236.6 367.8 235.3 365.4 236 363.2C236.7 361 239.1 359.7 241.3 360.4C243.5 361.1 244.8 363.5 244.1 365.7Z" fill="#FFBF1E"/>
<path d="M239 374.3L235.3 373.1L234.6 375.8L238 376.9L239 374.3Z" fill="#FFBF1E"/>
<path d="M232.3 370.8L230.5 367.4L228.2 368.8L229.8 371.9L232.3 370.8Z" fill="#FFBF1E"/>
<path d="M230 363.6L231.2 359.9L228.5 359.3L227.5 362.6L230 363.6Z" fill="#FFBF1E"/>
<path d="M233.5 357L237 355.2L235.5 352.8L232.4 354.4L233.5 357Z" fill="#FFBF1E"/>
<path d="M240.7 354.7L244.4 355.9L245.1 353.2L241.7 352.1L240.7 354.7Z" fill="#FFBF1E"/>
<path d="M247.4 358.2L249.2 361.6L251.5 360.2L249.9 357.1L247.4 358.2Z" fill="#FFBF1E"/>
<path d="M249.7 365.4L248.5 369.1L251.2 369.7L252.2 366.4L249.7 365.4Z" fill="#FFBF1E"/>
<path d="M246.2 372L242.7 373.8L244.2 376.2L247.3 374.6L246.2 372Z" fill="#FFBF1E"/>
<path d="M257.799 374C256.299 373 254.299 373.4 253.299 374.9C252.299 376.4 252.699 378.4 254.199 379.4C255.699 380.4 257.699 380 258.699 378.5C259.799 377 259.299 375 257.799 374ZM258.399 378.3C257.499 379.6 255.799 380 254.499 379.1C253.199 378.2 252.799 376.5 253.699 375.2C254.599 373.9 256.299 373.5 257.599 374.4C258.899 375.2 259.299 377 258.399 378.3ZM257.799 374C256.299 373 254.299 373.4 253.299 374.9C252.299 376.4 252.699 378.4 254.199 379.4C255.699 380.4 257.699 380 258.699 378.5C259.799 377 259.299 375 257.799 374ZM258.399 378.3C257.499 379.6 255.799 380 254.499 379.1C253.199 378.2 252.799 376.5 253.699 375.2C254.599 373.9 256.299 373.5 257.599 374.4C258.899 375.2 259.299 377 258.399 378.3ZM257.799 374C256.299 373 254.299 373.4 253.299 374.9C252.299 376.4 252.699 378.4 254.199 379.4C255.699 380.4 257.699 380 258.699 378.5C259.799 377 259.299 375 257.799 374ZM258.399 378.3C257.499 379.6 255.799 380 254.499 379.1C253.199 378.2 252.799 376.5 253.699 375.2C254.599 373.9 256.299 373.5 257.599 374.4C258.899 375.2 259.299 377 258.399 378.3ZM259.799 371C256.599 368.9 252.399 369.8 250.399 373C248.299 376.2 249.199 380.4 252.399 382.4C255.599 384.5 259.799 383.6 261.799 380.4C263.799 377.3 262.899 373.1 259.799 371ZM259.199 378.8C258.099 380.5 255.799 381 253.999 379.9C252.299 378.8 251.799 376.5 252.899 374.7C253.999 373 256.299 372.5 258.099 373.6C259.799 374.7 260.299 377 259.199 378.8ZM258.799 378.5C259.799 377 259.399 375 257.899 374C256.399 373 254.399 373.4 253.399 374.9C252.399 376.4 252.799 378.4 254.299 379.4C255.799 380.4 257.799 380 258.799 378.5ZM258.399 378.3C257.499 379.6 255.799 380 254.499 379.1C253.199 378.2 252.799 376.5 253.699 375.2C254.599 373.9 256.299 373.5 257.599 374.4C258.899 375.2 259.299 377 258.399 378.3ZM257.799 374C256.299 373 254.299 373.4 253.299 374.9C252.299 376.4 252.699 378.4 254.199 379.4C255.699 380.4 257.699 380 258.699 378.5C259.799 377 259.299 375 257.799 374ZM258.399 378.3C257.499 379.6 255.799 380 254.499 379.1C253.199 378.2 252.799 376.5 253.699 375.2C254.599 373.9 256.299 373.5 257.599 374.4C258.899 375.2 259.299 377 258.399 378.3ZM257.799 374C256.299 373 254.299 373.4 253.299 374.9C252.299 376.4 252.699 378.4 254.199 379.4C255.699 380.4 257.699 380 258.699 378.5C259.799 377 259.299 375 257.799 374ZM258.399 378.3C257.499 379.6 255.799 380 254.499 379.1C253.199 378.2 252.799 376.5 253.699 375.2C254.599 373.9 256.299 373.5 257.599 374.4C258.899 375.2 259.299 377 258.399 378.3Z" fill="#434343"/>
<path d="M253.6 382.9L251.4 381.5L250.5 383.1L252.5 384.4L253.6 382.9Z" fill="#434343"/>
<path d="M249.9 379.5L249.4 376.9L247.6 377.4L248.1 379.7L249.9 379.5Z" fill="#434343"/>
<path d="M249.7 374.4L251.2 372.2L249.5 371.3L248.3 373.3L249.7 374.4Z" fill="#434343"/>
<path d="M253.2 370.7L255.8 370.1L255.2 368.4L253 368.8L253.2 370.7Z" fill="#434343"/>
<path d="M258.3 370.5L260.5 371.9L261.4 370.3L259.4 369L258.3 370.5Z" fill="#434343"/>
<path d="M262 374L262.5 376.5L264.3 376L263.8 373.7L262 374Z" fill="#434343"/>
<path d="M262.099 379L260.699 381.2L262.299 382.1L263.599 380.2L262.099 379Z" fill="#434343"/>
<path d="M258.7 382.8L256.1 383.3L256.6 385.1L258.9 384.6L258.7 382.8Z" fill="#434343"/>
<path d="M305.5 401.5L308.801 402L317.901 340.4L314.5 339.5L305.5 401.5Z" fill="#FFBF1E"/>
<path d="M277.7 391.8L282.4 350.6L314.5 339.5C314.5 339.5 305.5 402.2 305.5 401.5L277.7 391.8Z" fill="#FFBF1E"/>
<path opacity="0.4" d="M277.7 391.6L282.4 350.4L314.5 339.5C314.5 339.5 305.5 402.2 305.5 401.5L277.7 391.6Z" fill="white"/>
<path d="M200.6 352.1C200.1 348.7 199.8 345.3 199.6 341.8C199.5 340.1 199.5 338.4 199.4 336.6C199.4 334.9 199.3 333.2 199.4 331.4V330.9H199.8C206.1 330.6 212.4 330.1 218.8 329.9C225.1 329.6 231.4 329.3 237.8 329.1C231.5 329.7 225.2 330.2 218.9 330.6C212.6 331.1 206.3 331.4 200 331.9L200.5 331.4V336.5L200.6 341.7C200.6 343.4 200.6 345.1 200.7 346.9L200.6 352.1Z" fill="white"/>
<path d="M286.9 351.1C288.9 350.2 290.9 349.3 292.9 348.5C294.9 347.7 297 346.9 299 346.2C301.1 345.5 303.1 344.8 305.2 344.2C307.3 343.6 309.4 343.1 311.6 342.7L312.1 342.6L312 343.1C311.5 345.8 311 348.4 310.4 351.1C310.6 348.4 311 345.7 311.3 343L311.7 343.4C309.6 343.9 307.5 344.5 305.4 345.1C303.3 345.7 301.3 346.4 299.2 347L286.9 351.1Z" fill="white"/>
<path d="M217.987 419.128L171.094 433.338L172.747 438.793L219.64 424.583L217.987 419.128Z" fill="#FFBF1E"/>
<path opacity="0.4" d="M217.987 419.128L171.094 433.338L172.747 438.793L219.64 424.583L217.987 419.128Z" fill="white"/>
<path d="M195.573 424.049L190.141 425.776L192.717 433.877L198.149 432.149L195.573 424.049Z" fill="#FFBF1E"/>
<path d="M172.4 446.9L160.3 394.5L123.8 403.1L141.8 454.2L172.4 446.9Z" fill="#FFBF1E"/>
<path d="M180.5 444.2L172.4 446.9L160.3 394.5L172 397.3L180.5 444.2Z" fill="#FFBF1E"/>
<path opacity="0.2" d="M180.5 444.2L172.4 446.9L160.3 394.5L172 397.3L180.5 444.2Z" fill="#434343"/>
<path d="M218.9 428.1C222.324 428.1 225.1 425.324 225.1 421.9C225.1 418.476 222.324 415.7 218.9 415.7C215.476 415.7 212.7 418.476 212.7 421.9C212.7 425.324 215.476 428.1 218.9 428.1Z" fill="#FFBF1E"/>
<path d="M282.772 419.063L281.107 424.514L327.971 438.822L329.635 433.371L282.772 419.063Z" fill="#FFBF1E"/>
<path opacity="0.4" d="M282.772 419.063L281.107 424.514L327.971 438.822L329.635 433.371L282.772 419.063Z" fill="white"/>
<path d="M305.208 423.992L302.614 432.087L308.042 433.826L310.637 425.732L305.208 423.992Z" fill="#FFBF1E"/>
<path d="M328.399 446.8L340.599 394.5L377.099 403.2L358.999 454.2L328.399 446.8Z" fill="#FFBF1E"/>
<path d="M320.3 444.1L328.4 446.8L340.6 394.5L328.9 397.2L320.3 444.1Z" fill="#FFBF1E"/>
<path opacity="0.2" d="M320.3 444.1L328.4 446.8L340.6 394.5L328.9 397.2L320.3 444.1Z" fill="#434343"/>
<path d="M275.8 421.7C275.8 425.1 278.6 427.9 282 427.9C285.4 427.9 288.2 425.1 288.2 421.7C288.2 418.3 285.4 415.5 282 415.5C278.6 415.5 275.8 418.3 275.8 421.7Z" fill="#FFBF1E"/>
<path d="M271.6 355.8C272 353.8 272.7 351.8 273.6 349.9C274.5 348 275.6 346.2 276.9 344.6C278.3 343 279.9 341.6 281.9 340.8C283.9 340.1 286.2 340.1 288.2 340.9C290.2 341.7 291.8 343.4 292.7 345.4C293.1 346.4 293.4 347.4 293.5 348.5C293.6 349.6 293.6 350.7 293.1 351.8C292.9 352.3 292.5 352.9 292 353.2C291.7 353.4 291.4 353.5 291.1 353.5C290.8 353.5 290.5 353.5 290.1 353.4C289.4 353.1 289.1 352.6 288.8 352.1C288.5 351.6 288.3 351.1 288.2 350.6C287.6 348.5 287.6 346.4 287.7 344.3C288 340.1 289.1 335.9 291.3 332.3C292.4 330.5 293.9 328.9 295.6 327.7C297.4 326.5 299.4 325.7 301.5 325.4C302.5 325.2 303.6 325.2 304.6 325.1C305.1 325 305.7 325.2 306.2 325.2C306.7 325.3 307.3 325.3 307.8 325.4C309.9 325.8 311.8 326.6 313.7 327.6C315.5 328.6 317.1 330 318.6 331.4C320.1 332.9 321.4 334.5 322.5 336.3C320.1 332.9 317.1 330 313.5 328C311.7 327.1 309.8 326.3 307.8 326C307.3 325.9 306.8 325.9 306.3 325.8C305.8 325.8 305.3 325.7 304.8 325.7C303.8 325.8 302.8 325.8 301.8 326C299.8 326.3 297.9 327.1 296.3 328.2C294.6 329.3 293.3 330.9 292.2 332.6C290.1 336 289 340.1 288.8 344.1C288.7 346.1 288.7 348.2 289.2 350.1C289.4 351 289.9 352 290.5 352.3C290.6 352.3 290.6 352.4 290.7 352.4C290.8 352.4 290.9 352.4 291 352.4C291.2 352.4 291.4 352.3 291.5 352.2C291.8 352 292.1 351.6 292.3 351.2C292.7 350.4 292.7 349.3 292.6 348.4C292.5 347.4 292.3 346.5 291.8 345.6C291 343.8 289.6 342.2 287.8 341.5C286 340.7 283.9 340.7 282 341.3C280.1 342 278.5 343.3 277.1 344.8C274.6 348 272.7 351.8 271.6 355.8Z" fill="#434343"/>
<path d="M179.2 381.7C180.2 379.9 181.6 378.3 183.2 377.1C184.9 375.9 186.8 374.9 188.8 374.4C190.8 373.9 193 373.9 195.1 374.5C197.1 375.1 199 376.3 200.4 377.8C201.9 379.3 203 381.2 203.7 383.1C204.4 385.1 204.9 387.2 204.7 389.3C204.6 390.4 204.4 391.5 203.5 392.4C203.1 392.9 202.4 393.1 201.8 393.2C201.2 393.2 200.6 393.1 200.1 392.8C199.6 392.5 199.1 392 198.9 391.5C198.6 391 198.5 390.4 198.5 389.8C198.5 388.7 198.7 387.6 199 386.6C199.7 384.6 200.8 382.7 202.1 381.1C203.4 379.4 204.9 378 206.6 376.7C210 374.2 214.3 372.9 218.5 373.4C220.6 373.7 222.6 374.3 224.5 375.3C226.3 376.3 227.9 377.7 229.2 379.4C230.5 381 231.5 382.9 232.3 384.8C233.1 386.7 233.7 388.7 233.9 390.7C233.1 386.7 231.4 382.8 228.8 379.7C227.5 378.1 225.9 376.8 224.2 375.9C222.4 374.9 220.5 374.4 218.5 374.2C214.5 373.8 210.4 375 207.2 377.4C204 379.8 201.3 383.1 200 386.8C199.7 387.7 199.5 388.7 199.5 389.6C199.5 390.5 199.8 391.4 200.6 391.8C201 392 201.4 392.1 201.9 392.1C202.3 392.1 202.7 391.9 203 391.6C203.6 391 203.8 390 203.9 389C204.1 387 203.7 385 203 383.2C202.3 381.3 201.2 379.6 199.9 378.1C198.5 376.6 196.8 375.5 194.9 374.9C193 374.3 190.9 374.2 189 374.6C185 375.7 181.4 378.2 179.2 381.7Z" fill="#434343"/>
<path d="M133 140.2C132.9 136.1 132 131.9 130.1 128.3C129.1 126.5 127.9 124.9 126.2 123.8C124.5 122.7 122.5 122.3 120.5 122.6C118.6 122.9 116.8 124.1 115.6 125.6C115 126.4 114.5 127.3 114.2 128.2C113.9 129.1 113.7 130.1 113.8 131C113.9 131.4 114 131.9 114.3 132.1C114.4 132.2 114.6 132.3 114.8 132.4C114.9 132.4 115 132.4 115.1 132.5C115.2 132.5 115.3 132.5 115.3 132.5C116 132.4 116.6 131.5 117.1 130.6C118 128.9 118.6 126.9 119 124.9C119.7 120.9 119.7 116.7 118.4 112.9C117.8 111 116.8 109.2 115.5 107.7C114.2 106.2 112.5 105 110.7 104.2C109.8 103.7 108.8 103.5 107.9 103.2C107.4 103 106.9 103 106.4 102.9C105.9 102.8 105.4 102.7 104.9 102.7C102.9 102.5 100.8 102.8 98.9002 103.3C94.9002 104.3 91.3002 106.5 88.2002 109.2C89.7002 107.7 91.3002 106.5 93.1002 105.4C94.9002 104.3 96.8002 103.4 98.8002 102.8C100.8 102.3 102.9 101.9 105 102C105.5 102 106 102.1 106.6 102.2C107.1 102.3 107.7 102.3 108.2 102.5C109.2 102.8 110.2 103 111.2 103.5C113.2 104.2 115 105.5 116.4 107.1C117.8 108.7 118.8 110.6 119.5 112.6C120.8 116.6 120.9 121 120.2 125.1C119.8 127.2 119.2 129.2 118.2 131.1C117.9 131.6 117.6 132 117.3 132.5C116.9 132.9 116.5 133.3 115.7 133.5C115.3 133.5 115 133.5 114.7 133.4C114.4 133.3 114.1 133.1 113.9 132.9C113.5 132.4 113.3 131.8 113.2 131.3C113 130.2 113.3 129.1 113.6 128C114 127 114.5 126 115.2 125.2C116.5 123.5 118.5 122.2 120.6 121.9C122.7 121.6 125 122.1 126.7 123.3C128.5 124.5 129.7 126.3 130.7 128.1C131.6 130 132.2 132 132.6 134C132.8 136.1 133 138.1 133 140.2Z" fill="#434343"/>
<path d="M291.9 127.7C291.2 125.3 291.1 122.8 291.5 120.3C291.9 117.9 292.7 115.4 294.1 113.3C295.4 111.2 297.3 109.4 299.5 108.2C301.7 107 304.3 106.5 306.8 106.6C309.3 106.7 311.8 107.3 314.1 108.4C316.4 109.5 318.5 110.9 320.2 112.8C321 113.8 321.8 114.9 321.8 116.4C321.8 117.1 321.5 117.9 321 118.4C320.5 118.9 319.9 119.3 319.2 119.5C318.5 119.7 317.7 119.7 317.1 119.4C316.4 119.2 315.9 118.7 315.4 118.3C314.4 117.4 313.8 116.3 313.2 115.1C312.1 112.8 311.5 110.3 311.2 107.9C310.9 105.4 311 102.9 311.4 100.4C312.2 95.5 314.8 90.7 318.8 87.7C320.8 86.2 323.1 85 325.5 84.4C327.9 83.7 330.5 83.6 332.9 83.9C335.4 84.2 337.8 84.9 340 85.9C342.3 86.9 344.4 88.1 346.4 89.6C342.3 86.9 337.7 84.9 332.8 84.4C330.4 84.2 327.9 84.3 325.6 85C323.3 85.6 321.1 86.8 319.2 88.3C317.3 89.8 315.7 91.7 314.6 93.8C313.4 95.9 312.7 98.2 312.2 100.6C311.4 105.3 311.9 110.4 313.9 114.8C314.4 115.9 315.1 116.9 315.9 117.7C316.7 118.5 317.8 119 318.8 118.7C319.3 118.6 319.8 118.2 320.2 117.9C320.6 117.5 320.7 117.1 320.7 116.6C320.7 115.5 320.1 114.5 319.3 113.6C317.8 111.8 315.7 110.4 313.6 109.4C311.4 108.4 309 107.8 306.6 107.7C304.2 107.6 301.8 108.1 299.6 109.1C297.4 110.2 295.6 111.9 294.3 113.9C291.8 117.7 290.8 122.9 291.9 127.7Z" fill="#434343"/>
<path d="M180.4 382.8C178.2 382.1 175.8 383.3 175.1 385.6C174.4 387.8 175.6 390.2 177.9 390.9C180.1 391.6 182.5 390.4 183.2 388.1C183.9 385.9 182.6 383.5 180.4 382.8ZM182.7 388C182.1 390 180 391.1 178 390.4C176 389.8 174.9 387.7 175.6 385.7C176.2 383.7 178.3 382.6 180.3 383.3C182.2 383.9 183.3 386 182.7 388ZM180.4 382.8C178.2 382.1 175.8 383.3 175.1 385.6C174.4 387.8 175.6 390.2 177.9 390.9C180.1 391.6 182.5 390.4 183.2 388.1C183.9 385.9 182.6 383.5 180.4 382.8ZM182.7 388C182.1 390 180 391.1 178 390.4C176 389.8 174.9 387.7 175.6 385.7C176.2 383.7 178.3 382.6 180.3 383.3C182.2 383.9 183.3 386 182.7 388ZM180.4 382.8C178.2 382.1 175.8 383.3 175.1 385.6C174.4 387.8 175.6 390.2 177.9 390.9C180.1 391.6 182.5 390.4 183.2 388.1C183.9 385.9 182.6 383.5 180.4 382.8ZM182.7 388C182.1 390 180 391.1 178 390.4C176 389.8 174.9 387.7 175.6 385.7C176.2 383.7 178.3 382.6 180.3 383.3C182.2 383.9 183.3 386 182.7 388ZM181.8 378.3C177.1 376.8 172 379.4 170.6 384.2C169.1 388.9 171.7 394 176.5 395.4C181.2 396.9 186.3 394.3 187.7 389.5C189.1 384.9 186.5 379.8 181.8 378.3ZM183.8 388.4C183 391 180.2 392.4 177.6 391.6C175 390.8 173.6 388 174.4 385.4C175.2 382.8 178 381.4 180.6 382.2C183.2 383 184.6 385.8 183.8 388.4ZM183.1 388.2C183.8 386 182.6 383.6 180.3 382.9C178.1 382.2 175.7 383.4 175 385.7C174.3 387.9 175.5 390.3 177.8 391C180.1 391.6 182.4 390.4 183.1 388.2ZM182.7 388C182.1 390 180 391.1 178 390.4C176 389.8 174.9 387.7 175.6 385.7C176.2 383.7 178.3 382.6 180.3 383.3C182.2 383.9 183.3 386 182.7 388ZM180.4 382.8C178.2 382.1 175.8 383.3 175.1 385.6C174.4 387.8 175.6 390.2 177.9 390.9C180.1 391.6 182.5 390.4 183.2 388.1C183.9 385.9 182.6 383.5 180.4 382.8ZM182.7 388C182.1 390 180 391.1 178 390.4C176 389.8 174.9 387.7 175.6 385.7C176.2 383.7 178.3 382.6 180.3 383.3C182.2 383.9 183.3 386 182.7 388ZM180.4 382.8C178.2 382.1 175.8 383.3 175.1 385.6C174.4 387.8 175.6 390.2 177.9 390.9C180.1 391.6 182.5 390.4 183.2 388.1C183.9 385.9 182.6 383.5 180.4 382.8ZM182.7 388C182.1 390 180 391.1 178 390.4C176 389.8 174.9 387.7 175.6 385.7C176.2 383.7 178.3 382.6 180.3 383.3C182.2 383.9 183.3 386 182.7 388Z" fill="#434343"/>
<path d="M178.2 395.6L174.9 394.6L174.3 396.9L177.2 397.9L178.2 395.6Z" fill="#434343"/>
<path d="M172.3 392.5L170.7 389.5L168.6 390.7L170 393.5L172.3 392.5Z" fill="#434343"/>
<path d="M170.3 386.2L171.3 382.9L168.9 382.3L168 385.2L170.3 386.2Z" fill="#434343"/>
<path d="M173.3 380.2L176.4 378.7L175.1 376.6L172.4 378L173.3 380.2Z" fill="#434343"/>
<path d="M179.7 378.2L183 379.3L183.5 376.9L180.6 376L179.7 378.2Z" fill="#434343"/>
<path d="M185.6 381.3L187.2 384.4L189.3 383.1L187.8 380.4L185.6 381.3Z" fill="#434343"/>
<path d="M187.6 387.7L186.6 391L188.9 391.5L189.9 388.6L187.6 387.7Z" fill="#434343"/>
<path d="M184.5 393.6L181.5 395.2L182.8 397.3L185.5 395.8L184.5 393.6Z" fill="#434343"/>
<path d="M341.699 353.3C346.199 347.2 344.899 338.6 338.899 334.1C332.799 329.6 324.199 330.9 319.699 336.9C315.199 343 316.499 351.6 322.499 356.1C328.599 360.7 337.199 359.4 341.699 353.3ZM335.799 349C333.699 351.8 329.699 352.4 326.899 350.3C324.099 348.2 323.499 344.2 325.599 341.3C327.699 338.5 331.699 337.9 334.499 340C337.299 342.2 337.899 346.2 335.799 349Z" fill="#434343"/>
<path d="M324.999 357.3L320.699 354.2L318.699 357.3L322.499 360.1L324.999 357.3Z" fill="#434343"/>
<path d="M318 349.9L317.2 344.7L313.6 345.5L314.2 350.2L318 349.9Z" fill="#434343"/>
<path d="M318.299 339.7L321.399 335.5L318.199 333.5L315.399 337.3L318.299 339.7Z" fill="#434343"/>
<path d="M325.699 332.7L330.899 332L329.999 328.3L325.399 329L325.699 332.7Z" fill="#434343"/>
<path d="M335.8 333L340.1 336.2L342.1 333L338.3 330.2L335.8 333Z" fill="#434343"/>
<path d="M342.8 340.4L343.6 345.6L347.2 344.8L346.6 340.2L342.8 340.4Z" fill="#434343"/>
<path d="M342.499 350.6L339.399 354.8L342.599 356.8L345.399 353L342.499 350.6Z" fill="#434343"/>
<path d="M335.099 357.6L329.899 358.4L330.799 362L335.399 361.3L335.099 357.6Z" fill="#434343"/>
<path d="M325.8 345.8L328.7 349.5L333.3 348.8L335 344.4L332.1 340.7L327.5 341.4L325.8 345.8ZM331.3 344C332 344.5 332.1 345.4 331.6 346.1C331.1 346.8 330.2 346.9 329.5 346.4C328.8 345.9 328.7 345 329.2 344.3C329.7 343.6 330.6 343.5 331.3 344Z" fill="#434343"/>
<path d="M351.9 86.6C349.9 86 347.9 87.1 347.2 89C346.6 91 347.7 93 349.6 93.7C351.6 94.3 353.6 93.2 354.3 91.3C355 89.3 353.9 87.2 351.9 86.6ZM353.9 91.1C353.4 92.8 351.5 93.8 349.8 93.2C348.1 92.7 347.1 90.8 347.7 89.1C348.2 87.4 350.1 86.4 351.8 87C353.5 87.6 354.5 89.4 353.9 91.1ZM351.9 86.6C349.9 86 347.9 87.1 347.2 89C346.6 91 347.7 93 349.6 93.7C351.6 94.3 353.6 93.2 354.3 91.3C355 89.3 353.9 87.2 351.9 86.6ZM353.9 91.1C353.4 92.8 351.5 93.8 349.8 93.2C348.1 92.7 347.1 90.8 347.7 89.1C348.2 87.4 350.1 86.4 351.8 87C353.5 87.6 354.5 89.4 353.9 91.1ZM351.9 86.6C349.9 86 347.9 87.1 347.2 89C346.6 91 347.7 93 349.6 93.7C351.6 94.3 353.6 93.2 354.3 91.3C355 89.3 353.9 87.2 351.9 86.6ZM353.9 91.1C353.4 92.8 351.5 93.8 349.8 93.2C348.1 92.7 347.1 90.8 347.7 89.1C348.2 87.4 350.1 86.4 351.8 87C353.5 87.6 354.5 89.4 353.9 91.1ZM353.2 82.7C349.1 81.4 344.7 83.7 343.4 87.8C342.1 91.9 344.4 96.3 348.5 97.6C352.6 98.9 357 96.6 358.3 92.5C359.6 88.4 357.3 84 353.2 82.7ZM354.9 91.4C354.2 93.7 351.8 94.9 349.5 94.2C347.2 93.5 346 91.1 346.7 88.8C347.4 86.5 349.8 85.3 352.1 86C354.4 86.8 355.6 89.2 354.9 91.4ZM354.4 91.3C355 89.3 353.9 87.3 352 86.6C350 86 348 87.1 347.3 89C346.7 91 347.8 93 349.7 93.7C351.7 94.3 353.8 93.2 354.4 91.3ZM353.9 91.1C353.4 92.8 351.5 93.8 349.8 93.2C348.1 92.7 347.1 90.8 347.7 89.1C348.2 87.4 350.1 86.4 351.8 87C353.5 87.6 354.5 89.4 353.9 91.1ZM351.9 86.6C349.9 86 347.9 87.1 347.2 89C346.6 91 347.7 93 349.6 93.7C351.6 94.3 353.6 93.2 354.3 91.3C355 89.3 353.9 87.2 351.9 86.6ZM353.9 91.1C353.4 92.8 351.5 93.8 349.8 93.2C348.1 92.7 347.1 90.8 347.7 89.1C348.2 87.4 350.1 86.4 351.8 87C353.5 87.6 354.5 89.4 353.9 91.1ZM351.9 86.6C349.9 86 347.9 87.1 347.2 89C346.6 91 347.7 93 349.6 93.7C351.6 94.3 353.6 93.2 354.3 91.3C355 89.3 353.9 87.2 351.9 86.6ZM353.9 91.1C353.4 92.8 351.5 93.8 349.8 93.2C348.1 92.7 347.1 90.8 347.7 89.1C348.2 87.4 350.1 86.4 351.8 87C353.5 87.6 354.5 89.4 353.9 91.1Z" fill="#434343"/>
<path d="M350 97.8L347.1 96.9L346.6 99L349.2 99.8L350 97.8Z" fill="#434343"/>
<path d="M344.8 95.1L343.4 92.4L341.6 93.5L342.9 95.9L344.8 95.1Z" fill="#434343"/>
<path d="M343.1 89.5L344 86.6L341.9 86.2L341.1 88.7L343.1 89.5Z" fill="#434343"/>
<path d="M345.799 84.3L348.499 83L347.299 81.1L344.899 82.4L345.799 84.3Z" fill="#434343"/>
<path d="M351.3 82.6L354.2 83.5L354.7 81.4L352.1 80.6L351.3 82.6Z" fill="#434343"/>
<path d="M356.5 85.3L357.9 88L359.7 86.8L358.5 84.5L356.5 85.3Z" fill="#434343"/>
<path d="M358.299 90.9L357.399 93.7L359.399 94.2L360.199 91.7L358.299 90.9Z" fill="#434343"/>
<path d="M355.599 96L352.899 97.4L353.999 99.2L356.399 98L355.599 96Z" fill="#434343"/>
<path d="M313.699 229.5C311.699 228.9 309.599 230 308.999 231.9C308.399 233.9 309.499 236 311.399 236.6C313.399 237.2 315.399 236.1 316.099 234.2C316.799 232.2 315.699 230.1 313.699 229.5ZM315.699 234C315.199 235.7 313.299 236.7 311.599 236.1C309.899 235.5 308.899 233.7 309.499 232C309.999 230.3 311.899 229.3 313.599 229.9C315.299 230.4 316.299 232.3 315.699 234ZM313.699 229.5C311.699 228.9 309.599 230 308.999 231.9C308.399 233.9 309.499 236 311.399 236.6C313.399 237.2 315.399 236.1 316.099 234.2C316.799 232.2 315.699 230.1 313.699 229.5ZM315.699 234C315.199 235.7 313.299 236.7 311.599 236.1C309.899 235.5 308.899 233.7 309.499 232C309.999 230.3 311.899 229.3 313.599 229.9C315.299 230.4 316.299 232.3 315.699 234ZM313.699 229.5C311.699 228.9 309.599 230 308.999 231.9C308.399 233.9 309.499 236 311.399 236.6C313.399 237.2 315.399 236.1 316.099 234.2C316.799 232.2 315.699 230.1 313.699 229.5ZM315.699 234C315.199 235.7 313.299 236.7 311.599 236.1C309.899 235.5 308.899 233.7 309.499 232C309.999 230.3 311.899 229.3 313.599 229.9C315.299 230.4 316.299 232.3 315.699 234ZM314.999 225.5C310.899 224.2 306.499 226.5 305.199 230.6C303.899 234.7 306.199 239.1 310.299 240.4C314.399 241.7 318.799 239.4 320.099 235.3C321.399 231.2 319.099 226.8 314.999 225.5ZM316.699 234.3C315.999 236.6 313.599 237.8 311.299 237.1C308.999 236.4 307.799 234 308.499 231.7C309.199 229.4 311.599 228.2 313.899 228.9C316.199 229.6 317.399 232 316.699 234.3ZM316.199 234.1C316.799 232.1 315.699 230.1 313.799 229.4C311.799 228.8 309.699 229.9 309.099 231.8C308.499 233.8 309.599 235.9 311.499 236.5C313.499 237.2 315.499 236.1 316.199 234.1ZM315.699 234C315.199 235.7 313.299 236.7 311.599 236.1C309.899 235.5 308.899 233.7 309.499 232C309.999 230.3 311.899 229.3 313.599 229.9C315.299 230.4 316.299 232.3 315.699 234ZM313.699 229.5C311.699 228.9 309.599 230 308.999 231.9C308.399 233.9 309.499 236 311.399 236.6C313.399 237.2 315.399 236.1 316.099 234.2C316.799 232.2 315.699 230.1 313.699 229.5ZM315.699 234C315.199 235.7 313.299 236.7 311.599 236.1C309.899 235.5 308.899 233.7 309.499 232C309.999 230.3 311.899 229.3 313.599 229.9C315.299 230.4 316.299 232.3 315.699 234ZM313.699 229.5C311.699 228.9 309.599 230 308.999 231.9C308.399 233.9 309.499 236 311.399 236.6C313.399 237.2 315.399 236.1 316.099 234.2C316.799 232.2 315.699 230.1 313.699 229.5ZM315.699 234C315.199 235.7 313.299 236.7 311.599 236.1C309.899 235.5 308.899 233.7 309.499 232C309.999 230.3 311.899 229.3 313.599 229.9C315.299 230.4 316.299 232.3 315.699 234Z" fill="#434343"/>
<path d="M311.799 240.6L308.899 239.7L308.399 241.8L310.999 242.6L311.799 240.6Z" fill="#434343"/>
<path d="M306.599 237.9L305.199 235.3L303.399 236.4L304.599 238.8L306.599 237.9Z" fill="#434343"/>
<path d="M304.899 232.4L305.799 229.5L303.699 229L302.899 231.6L304.899 232.4Z" fill="#434343"/>
<path d="M307.599 227.2L310.199 225.8L309.099 224L306.699 225.2L307.599 227.2Z" fill="#434343"/>
<path d="M313.1 225.5L316 226.4L316.5 224.3L313.9 223.5L313.1 225.5Z" fill="#434343"/>
<path d="M318.3 228.2L319.7 230.8L321.5 229.7L320.3 227.3L318.3 228.2Z" fill="#434343"/>
<path d="M320 233.7L319.1 236.6L321.2 237.1L322 234.5L320 233.7Z" fill="#434343"/>
<path d="M317.299 238.9L314.699 240.3L315.799 242.1L318.199 240.9L317.299 238.9Z" fill="#434343"/>
<path d="M94.9993 117C96.4993 110.7 92.6993 104.3 86.2993 102.7C79.9993 101.2 73.5993 105 71.9993 111.4C70.4993 117.7 74.2993 124.1 80.6993 125.7C87.0993 127.2 93.4993 123.3 94.9993 117ZM88.8993 115.5C88.1993 118.5 85.1993 120.3 82.1993 119.5C79.1993 118.8 77.3993 115.8 78.1993 112.8C78.8993 109.8 81.8993 108 84.8993 108.8C87.7993 109.6 89.5993 112.5 88.8993 115.5Z" fill="#434343"/>
<path d="M83.1002 125.7L78.7002 124.6L78.2002 127.8L82.1002 128.8L83.1002 125.7Z" fill="#434343"/>
<path d="M75.0996 122.2L72.6996 118.3L70.0996 120.2L72.1996 123.6L75.0996 122.2Z" fill="#434343"/>
<path d="M71.8998 114L72.9998 109.6L69.7998 109.1L68.7998 113L71.8998 114Z" fill="#434343"/>
<path d="M75.4 106L79.3 103.6L77.4 101L74 103.1L75.4 106Z" fill="#434343"/>
<path d="M83.5996 102.8L87.9996 103.9L88.4996 100.7L84.5996 99.8L83.5996 102.8Z" fill="#434343"/>
<path d="M91.5996 106.3L93.9996 110.2L96.5996 108.3L94.4996 104.9L91.5996 106.3Z" fill="#434343"/>
<path d="M94.8002 114.5L93.7002 118.9L96.9002 119.4L97.8002 115.5L94.8002 114.5Z" fill="#434343"/>
<path d="M91.2994 122.5L87.3994 124.9L89.2994 127.5L92.6994 125.4L91.2994 122.5Z" fill="#434343"/>
<path d="M79.8998 116.4L83.3998 118.3L86.7998 116.2L86.6998 112.2L83.1998 110.3L79.7998 112.4L79.8998 116.4ZM83.5998 113C84.2998 113.2 84.6998 113.9 84.4998 114.5C84.2998 115.2 83.5998 115.6 82.9998 115.4C82.2998 115.2 81.8998 114.5 82.0998 113.9C82.2998 113.3 82.9998 112.9 83.5998 113Z" fill="#434343"/>
<path d="M364.6 241.7C361.9 237.6 360.4 233 360.4 228.1C360.4 210.9 379.3 197 402.6 197C425.9 197 444.7 210.9 444.7 228.1C444.7 245.3 425.8 259.2 402.6 259.2C391.3 259.2 381.1 255.9 373.5 250.6L359 254.3L364.6 241.7Z" fill="white"/>
<path d="M364.8 241.132C362.3 237.332 360.7 232.932 360.5 228.332C360.4 223.732 361.5 219.132 363.9 215.132C366.2 211.132 369.5 207.732 373.2 205.032C376.9 202.332 381.1 200.232 385.4 198.832C389.8 197.332 394.3 196.532 398.9 196.132C403.5 195.832 408.1 196.032 412.6 196.832C413.7 197.032 414.9 197.232 416 197.532L419.3 198.432L422.6 199.532C423.7 199.932 424.7 200.432 425.8 200.932C430 202.932 433.8 205.532 437.1 208.732C440.4 212.032 443 215.932 444.4 220.432C445.8 224.832 445.9 229.732 444.5 234.232C443.2 238.732 440.6 242.732 437.4 246.032C434.2 249.332 430.3 251.932 426.2 254.032C422.1 256.032 417.6 257.432 413.1 258.232C408.6 259.032 404 259.332 399.4 259.032C394.8 258.732 390.3 257.932 385.9 256.432C381.5 255.032 377.4 253.032 373.6 250.332H373.8L359.2 253.932L359 254.032L359.1 253.832L364.8 241.132ZM364.8 241.132L360.5 252.5L359.3 253.832L359.2 253.632L360.5 252.5L373.7 249H373.8L373.9 249.1C381.4 254.3 390.4 257.732 399.4 258.232C403.9 258.532 408.5 258.132 412.9 257.332C417.3 256.532 421.7 255.232 425.8 253.132C429.8 251.132 433.6 248.532 436.7 245.332C439.8 242.132 442.3 238.232 443.5 233.932C444.8 229.632 444.7 225.032 443.3 220.732C442 216.432 439.5 212.632 436.3 209.432C433.1 206.232 429.3 203.732 425.3 201.732C424.3 201.332 423.3 200.732 422.2 200.332L419 199.232L415.7 198.332C414.6 198.032 413.5 197.932 412.4 197.632C407.9 196.832 403.4 196.632 398.9 196.932C394.4 197.232 389.9 198.032 385.6 199.432C381.3 200.832 377.2 202.832 373.5 205.432C369.8 208.032 366.6 211.332 364.3 215.232C361.9 219.132 360.7 223.632 360.8 228.132C360.8 232.832 362.3 237.332 364.8 241.132Z" fill="#434343"/>
<path d="M436.3 209.432C433.1 206.232 429.3 203.732 425.3 201.732C424.3 201.332 423.3 200.732 422.2 200.332L419 199.232L415.7 198.332C414.6 198.032 413.5 197.932 412.4 197.632C407.9 196.832 403.4 196.632 398.9 196.932C394.4 197.232 389.9 198.032 385.6 199.432C381.3 200.832 377.2 202.832 373.5 205.432C369.8 208.032 366.6 211.332 364.3 215.232C361.9 219.132 360.7 223.632 360.8 228.132C360.8 232.832 362.3 237.332 364.8 241.132L360.5 252.5C362.53 248.474 366 241.4 366 241C366 240.5 351.8 222 373.9 206C396 190 423 197.5 436.3 209.432Z" fill="#434343"/>
<path d="M381.1 232.732V235.032H371.7V221.432H381V223.732H374.4V227.032H380.1V229.132H374.4V232.632H381.1V232.732Z" fill="#434343"/>
<path d="M383.101 235.032V221.432H389.101C389.701 221.432 390.301 221.532 390.801 221.832C391.301 222.132 391.801 222.432 392.201 222.832C392.601 223.232 392.901 223.732 393.101 224.332C393.301 224.832 393.401 225.432 393.401 225.932C393.401 226.832 393.201 227.632 392.701 228.332C392.301 229.032 391.701 229.532 390.901 229.932L394.001 235.032H391.001L388.201 230.432H385.601V235.032H383.101ZM385.801 228.132H389.101C389.301 228.132 389.601 228.032 389.801 227.932C390.001 227.832 390.201 227.632 390.301 227.432C390.501 227.232 390.601 227.032 390.701 226.732C390.801 226.432 390.801 226.132 390.801 225.832C390.801 225.532 390.701 225.232 390.601 224.932C390.501 224.632 390.401 224.432 390.201 224.232C390.001 224.032 389.801 223.832 389.601 223.732C389.401 223.632 389.101 223.532 388.901 223.532H385.701V228.132H385.801Z" fill="#434343"/>
<path d="M395.9 235.032V221.432H401.9C402.5 221.432 403.1 221.532 403.6 221.832C404.1 222.132 404.6 222.432 405 222.832C405.4 223.232 405.7 223.732 405.9 224.332C406.1 224.832 406.2 225.432 406.2 225.932C406.2 226.832 406 227.632 405.5 228.332C405.1 229.032 404.5 229.532 403.7 229.932L406.8 235.032H403.8L401 230.432H398.4V235.032H395.9ZM398.5 228.132H401.8C402 228.132 402.3 228.032 402.5 227.932C402.7 227.832 402.9 227.632 403 227.432C403.2 227.232 403.3 227.032 403.4 226.732C403.5 226.432 403.5 226.132 403.5 225.832C403.5 225.532 403.4 225.232 403.3 224.932C403.2 224.632 403.1 224.432 402.9 224.232C402.7 224.032 402.5 223.832 402.3 223.732C402.1 223.632 401.8 223.532 401.6 223.532H398.4V228.132H398.5Z" fill="#434343"/>
<path d="M414.4 235.132C413.4 235.132 412.5 234.932 411.7 234.532C410.9 234.132 410.2 233.632 409.6 232.932C409 232.332 408.6 231.532 408.3 230.732C408 229.932 407.8 229.032 407.8 228.232C407.8 227.332 408 226.432 408.3 225.632C408.6 224.832 409.1 224.032 409.7 223.432C410.3 222.832 411 222.332 411.8 221.932C412.6 221.532 413.5 221.332 414.5 221.332C415.5 221.332 416.4 221.532 417.2 221.932C418 222.332 418.7 222.832 419.3 223.532C419.9 224.232 420.3 224.932 420.6 225.732C420.9 226.532 421.1 227.432 421.1 228.232C421.1 229.132 420.9 230.032 420.6 230.832C420.3 231.632 419.8 232.432 419.2 233.032C418.6 233.632 417.9 234.132 417.1 234.532C416.2 234.932 415.3 235.132 414.4 235.132ZM410.4 228.232C410.4 228.832 410.5 229.432 410.7 229.932C410.9 230.432 411.1 230.932 411.5 231.432C411.8 231.832 412.3 232.232 412.7 232.432C413.2 232.732 413.7 232.832 414.4 232.832C415 232.832 415.6 232.732 416.1 232.432C416.6 232.132 417 231.832 417.3 231.432C417.6 231.032 417.9 230.532 418.1 229.932C418.3 229.432 418.4 228.832 418.4 228.232C418.4 227.632 418.3 227.032 418.1 226.532C417.9 226.032 417.7 225.532 417.3 225.032C417 224.632 416.5 224.232 416.1 224.032C415.6 223.832 415.1 223.632 414.4 223.632C413.8 223.632 413.2 223.732 412.7 224.032C412.2 224.332 411.8 224.632 411.5 225.032C411.2 225.432 410.9 225.932 410.7 226.532C410.5 227.132 410.4 227.632 410.4 228.232Z" fill="#434343"/>
<path d="M423 235.032V221.432H429C429.6 221.432 430.2 221.532 430.7 221.832C431.2 222.132 431.7 222.432 432.1 222.832C432.5 223.232 432.8 223.732 433 224.332C433.2 224.832 433.3 225.432 433.3 225.932C433.3 226.832 433.1 227.632 432.6 228.332C432.2 229.032 431.6 229.532 430.8 229.932L433.9 235.032H430.9L428.1 230.432H425.5V235.032H423ZM425.7 228.132H429C429.2 228.132 429.5 228.032 429.7 227.932C429.9 227.832 430.1 227.632 430.2 227.432C430.4 227.232 430.5 227.032 430.6 226.732C430.7 226.432 430.7 226.132 430.7 225.832C430.7 225.532 430.6 225.232 430.5 224.932C430.4 224.632 430.3 224.432 430.1 224.232C429.9 224.032 429.7 223.832 429.5 223.732C429.3 223.632 429 223.532 428.8 223.532H425.6V228.132H425.7Z" fill="#434343"/>
</svg>
