<svg width="18" height="18" viewBox="0 0 18 18" fill="none" xmlns="http://www.w3.org/2000/svg">
<path d="M16.8681 5.56236H13.8508V1.12379C13.8508 0.524877 13.3586 0 12.719 0H5.28103C4.64128 0 4.14918 0.526909 4.14918 1.12379V2.65815H1.13201C0.511502 2.65815 0 3.14882 0 3.74456V16.9136C0 17.5092 0.511194 18 1.13201 18H16.8681C17.4887 18 18 17.5093 18 16.9136V6.6488C18 6.05321 17.4887 5.5624 16.8681 5.5624V5.56236ZM4.14891 16.9654H1.13189C1.10122 16.9654 1.07762 16.9429 1.07762 16.9135L1.07746 3.74444C1.07746 3.715 1.10122 3.69249 1.13174 3.69249H4.14907V16.9653L4.14891 16.9654ZM9.66539 16.9654H8.33415V15.2032H9.66539V16.9654ZM12.7729 16.9654H10.7431V14.6861C10.7431 14.4004 10.502 14.1689 10.2043 14.1689H7.79528C7.49758 14.1689 7.25641 14.4004 7.25641 14.6861V16.9654H5.22665V1.12379C5.22665 1.0538 5.26499 1.03446 5.28077 1.03446H12.7187C12.7303 1.03446 12.7728 1.05596 12.7728 1.12379V16.9654H12.7729ZM16.9222 16.9135C16.9222 16.9429 16.8987 16.9654 16.8681 16.9654H13.8507V6.59682H16.8681C16.8987 6.59682 16.9222 6.61934 16.9222 6.64877V16.9135Z" fill="#434343"/>
<path d="M7.66464 10.5403H6.7787C6.49296 10.5403 6.26147 10.7718 6.26147 11.0575V11.9413C6.26147 12.2271 6.49296 12.4585 6.7787 12.4585H7.66464C7.95039 12.4585 8.18187 12.2271 8.18187 11.9413V11.0575C8.18187 10.7718 7.95039 10.5403 7.66464 10.5403Z" fill="#434343"/>
<path d="M7.66464 7.70856H6.7787C6.49296 7.70856 6.26147 7.94004 6.26147 8.22579V9.10959C6.26147 9.39533 6.49296 9.62682 6.7787 9.62682H7.66464C7.95039 9.62682 8.18187 9.39533 8.18187 9.10959V8.22579C8.18187 7.94018 7.95039 7.70856 7.66464 7.70856Z" fill="#434343"/>
<path d="M7.66464 4.87482H6.7787C6.49296 4.87482 6.26147 5.1063 6.26147 5.39205V6.27799C6.26147 6.56373 6.49296 6.79522 6.7787 6.79522H7.66464C7.95039 6.79522 8.18187 6.56373 8.18187 6.27799V5.39205C8.18187 5.10644 7.95039 4.87482 7.66464 4.87482Z" fill="#434343"/>
<path d="M7.66464 2.04333H6.7787C6.49296 2.04333 6.26147 2.27482 6.26147 2.56056V3.44651C6.26147 3.73225 6.49296 3.96373 6.7787 3.96373H7.66464C7.95039 3.96373 8.18187 3.73225 8.18187 3.44651V2.56056C8.18187 2.27482 7.95039 2.04333 7.66464 2.04333Z" fill="#434343"/>
<path d="M10.4965 10.5403H9.61269C9.32694 10.5403 9.09546 10.7718 9.09546 11.0575V11.9413C9.09546 12.2271 9.32694 12.4585 9.61269 12.4585H10.4965C10.7822 12.4585 11.0137 12.2271 11.0137 11.9413V11.0575C11.0134 10.7718 10.7819 10.5403 10.4965 10.5403Z" fill="#434343"/>
<path d="M10.4965 7.70856H9.61269C9.32694 7.70856 9.09546 7.94004 9.09546 8.22579V9.10959C9.09546 9.39533 9.32694 9.62682 9.61269 9.62682H10.4965C10.7822 9.62682 11.0137 9.39533 11.0137 9.10959V8.22579C11.0134 7.94018 10.7819 7.70856 10.4965 7.70856Z" fill="#434343"/>
<path d="M10.4965 4.87482H9.61269C9.32694 4.87482 9.09546 5.1063 9.09546 5.39205V6.27799C9.09546 6.56373 9.32694 6.79522 9.61269 6.79522H10.4965C10.7822 6.79522 11.0137 6.56373 11.0137 6.27799V5.39205C11.0134 5.10644 10.7819 4.87482 10.4965 4.87482Z" fill="#434343"/>
<path d="M10.4965 2.04333H9.61269C9.32694 2.04333 9.09546 2.27482 9.09546 2.56056V3.44651C9.09546 3.73225 9.32694 3.96373 9.61269 3.96373H10.4965C10.7822 3.96373 11.0137 3.73225 11.0137 3.44651V2.56056C11.0134 2.27482 10.7819 2.04333 10.4965 2.04333Z" fill="#434343"/>
<path d="M2.06569 15.5444H2.95163C3.23738 15.5444 3.46887 15.3129 3.46887 15.0272V14.1434C3.46887 13.8576 3.23738 13.6262 2.95163 13.6262H2.06569C1.77994 13.6262 1.54846 13.8576 1.54846 14.1434V15.0272C1.54846 15.3129 1.77994 15.5444 2.06569 15.5444Z" fill="#434343"/>
<path d="M2.06569 12.7132H2.95163C3.23738 12.7132 3.46887 12.4817 3.46887 12.196V11.31C3.46887 11.0243 3.23738 10.7928 2.95163 10.7928H2.06569C1.77994 10.7928 1.54846 11.0243 1.54846 11.31V12.196C1.54846 12.4817 1.77994 12.7132 2.06569 12.7132Z" fill="#434343"/>
<path d="M2.06569 9.88164H2.95163C3.23738 9.88164 3.46887 9.65016 3.46887 9.36441V8.47847C3.46887 8.19273 3.23738 7.96124 2.95163 7.96124H2.06569C1.77994 7.96124 1.54846 8.19273 1.54846 8.47847V9.36441C1.54846 9.65016 1.77994 9.88164 2.06569 9.88164Z" fill="#434343"/>
<path d="M2.06569 7.04786H2.95163C3.23738 7.04786 3.46887 6.81638 3.46887 6.53063V5.64683C3.46887 5.36108 3.23738 5.1296 2.95163 5.1296L2.06569 5.12946C1.77994 5.12946 1.54846 5.36094 1.54846 5.64669V6.53048C1.54846 6.81623 1.77994 7.04786 2.06569 7.04786V7.04786Z" fill="#434343"/>
<path d="M15.2113 13.6617H14.3253C14.0396 13.6617 13.8081 13.8932 13.8081 14.179V15.0628C13.8081 15.3485 14.0396 15.58 14.3253 15.58H15.2113C15.497 15.58 15.7285 15.3485 15.7285 15.0628V14.179C15.7285 13.8932 15.497 13.6617 15.2113 13.6617Z" fill="#434343"/>
<path d="M15.2113 10.83H14.3253C14.0396 10.83 13.8081 11.0615 13.8081 11.3472V12.231C13.8081 12.5168 14.0396 12.7483 14.3253 12.7483H15.2113C15.497 12.7483 15.7285 12.5168 15.7285 12.231V11.3472C15.7285 11.0618 15.497 10.83 15.2113 10.83Z" fill="#434343"/>
<path d="M15.2113 7.9964H14.3253C14.0396 7.9964 13.8081 8.22788 13.8081 8.51363V9.39957C13.8081 9.68532 14.0396 9.9168 14.3253 9.9168H15.2113C15.497 9.9168 15.7285 9.68532 15.7285 9.39957V8.51363C15.7285 8.22817 15.497 7.99669 15.2113 7.9964Z" fill="#434343"/>
</svg>
