<svg width="18" height="18" viewBox="0 0 18 18" fill="none" xmlns="http://www.w3.org/2000/svg">
<circle cx="9" cy="9" r="9" fill="white"/>
<path d="M9 8.56676e-05C6.61305 8.56676e-05 4.32381 0.948304 2.63608 2.63616C0.948223 4.32401 0 6.61319 0 9.00004C0 11.3869 0.948223 13.6762 2.63608 15.3639C4.32394 17.0518 6.61313 18 9 18C11.3869 18 13.6762 17.0518 15.3639 15.3639C17.0518 13.6761 18 11.3869 18 9.00004C17.9968 6.61409 17.0476 4.32688 15.3604 2.63958C13.6732 0.952419 11.3859 0.00317144 8.99991 0L9 8.56676e-05ZM14.0289 6.52897L8.40385 12.154C8.2644 12.2956 8.07388 12.3753 7.87516 12.3753C7.67644 12.3753 7.48593 12.2956 7.34647 12.154L4.72145 9.52899C4.53243 9.34015 4.45878 9.06476 4.52792 8.80676C4.59706 8.54878 4.79862 8.3472 5.05661 8.27807C5.31459 8.20893 5.58997 8.28259 5.77884 8.4716L7.87518 10.5641L12.9714 5.47175C13.1602 5.28274 13.4356 5.20908 13.6936 5.27823C13.9516 5.34737 14.1532 5.54893 14.2223 5.80691C14.2914 6.06489 14.2178 6.34027 14.0288 6.52915L14.0289 6.52897Z" fill="#62D086"/>
</svg>
