<svg width="16" height="20" viewBox="0 0 16 20" fill="none" xmlns="http://www.w3.org/2000/svg">
<path fill-rule="evenodd" clip-rule="evenodd" d="M2.31697 17.3406C0.868114 16.1915 0.604736 14.5322 1.65832 13.1278C1.92172 12.8725 2.05357 12.6171 2.31697 12.4893C0.868114 11.3402 0.604736 9.68088 1.65832 8.14896C1.92172 8.02115 2.05357 7.76584 2.31697 7.63833C1.52676 6.87237 1 6.10641 1 5.21269C1 3.93615 1.92202 2.91482 3.23908 2.14894C5.8731 0.617021 10.0878 0.617021 12.7217 2.14894C14.1705 2.91489 14.9607 3.93615 14.9607 5.21269C14.9607 6.10641 14.5655 6.87237 13.6438 7.63833C13.906 7.76554 14.1681 8.0191 14.3006 8.14719L14.3024 8.14896C15.4879 9.68088 15.0926 11.3406 13.6438 12.4893C13.9072 12.6171 14.1706 12.8725 14.3024 13.1278C15.4879 14.5322 15.092 16.1915 13.6431 17.3406L12.1948 18.2341C9.69237 19.2553 6.26844 19.2553 3.7659 18.2341L2.31697 17.3406ZM2.97569 9.17042C3.2391 8.9151 3.5025 8.65978 3.7659 8.53198C6.26844 9.55323 9.69237 9.55323 12.1948 8.53198C12.4582 8.65978 12.8532 8.9151 12.985 9.17042C13.7753 10.1917 12.985 11.213 11.9314 11.7236C9.8241 12.8727 6.26836 12.8727 4.02928 11.7236C3.10754 11.2129 2.18547 10.1917 2.97569 9.17042ZM4.02983 3.55318C6.13718 2.27663 9.8248 2.27663 11.932 3.55318C12.854 3.93631 13.3809 4.57441 13.3809 5.21285C13.3809 5.72344 12.854 6.36189 11.932 6.87253C9.82465 8.02162 6.26891 8.02162 4.02983 6.87253C3.23966 6.36194 2.71286 5.72349 2.71286 5.21285C2.71286 4.57443 3.23962 3.9363 4.02983 3.55318ZM2.97569 14.0215C3.2391 13.7662 3.5025 13.5109 3.7659 13.3831C6.26844 14.4043 9.69237 14.4043 12.1948 13.3831C12.5898 13.5109 12.8532 13.7662 12.985 14.0215C13.7753 15.0428 12.985 16.0641 11.9314 16.5747C9.8241 17.7238 6.26836 17.7238 4.02928 16.5747C3.10754 16.064 2.18547 15.0428 2.97569 14.0215Z" fill="#434343" stroke="white" stroke-width="0.3"/>
</svg>
