<svg width="24" height="20" viewBox="0 0 24 20" fill="none" xmlns="http://www.w3.org/2000/svg">
<path d="M22.4757 1.00017H14.0951C13.807 1.00017 13.5713 1.23841 13.5713 1.52964V5.23553H9.90459C9.61644 5.23553 9.38073 5.47376 9.38073 5.765V9.47089H5.71405C5.4259 9.47089 5.19019 9.70912 5.19019 10.0004V13.7062L1.52386 13.7059C1.23571 13.7059 1 13.9441 1 14.2354V18.4705C1 18.7618 1.23571 19 1.52386 19H22.4761C22.7643 19 23 18.7618 23 18.4705L22.9998 1.52928C22.9998 1.23823 22.7641 1 22.476 1L22.4757 1.00017ZM21.952 17.941H2.04719V14.7645H5.71387C6.00202 14.7645 6.23773 14.5263 6.23773 14.2351V10.5292H9.90441C10.1926 10.5292 10.4283 10.291 10.4283 9.99972V6.29383H14.095C14.3831 6.29383 14.6188 6.05559 14.6188 5.76436L14.6185 2.05883H21.9516L21.952 17.941Z" fill="#434343" stroke="#434343" stroke-width="0.3"/>
</svg>
