<svg width="22" height="19" viewBox="0 0 22 19" fill="none" xmlns="http://www.w3.org/2000/svg">
<path d="M20.475 6.04298C20.3359 6.04408 20.2023 5.98776 20.1048 5.88715C17.6835 3.44404 14.4075 2.07256 10.9929 2.07256C7.57827 2.07256 4.30254 3.444 1.88097 5.88715C1.67469 6.08221 1.35291 6.07651 1.15346 5.87402C0.953891 5.67167 0.948279 5.34529 1.14068 5.13583C3.75519 2.48751 7.29858 1 10.993 1C14.6874 1 18.2306 2.48743 20.8453 5.13583C20.9443 5.23502 21 5.37028 21 5.5114C21 5.65267 20.9443 5.78793 20.8453 5.88713C20.7484 5.98853 20.6144 6.04485 20.4752 6.04296L20.475 6.04298Z" fill="#434343" stroke="#434343" stroke-width="0.4"/>
<path d="M17.8558 8.70463C17.7159 8.70432 17.5817 8.64831 17.4821 8.54864C15.7605 6.80367 13.4264 5.82346 10.9933 5.82346C8.5601 5.82346 6.22594 6.80367 4.50445 8.54864C4.2999 8.75715 3.96765 8.75795 3.76229 8.55038C3.5568 8.34298 3.55602 8.00587 3.76058 7.79733C5.6802 5.85367 8.28163 4.76208 10.9934 4.76208C13.7051 4.76208 16.3067 5.85367 18.2262 7.79733C18.4285 8.00568 18.4285 8.34027 18.2262 8.54864C18.1275 8.64736 17.9946 8.70336 17.856 8.70463L17.8558 8.70463Z" fill="#434343" stroke="#434343" stroke-width="0.4"/>
<path d="M15.2331 11.3622C15.0939 11.3633 14.9602 11.307 14.8628 11.2062C13.8357 10.1667 12.4439 9.58291 10.9932 9.58291C9.54244 9.58291 8.15073 10.1667 7.12359 11.2062C6.91716 11.4014 6.59553 11.3956 6.39596 11.1933C6.19654 10.9908 6.19078 10.6644 6.38317 10.4549C7.60677 9.21638 9.26475 8.52075 10.9932 8.52075C12.7217 8.52075 14.3797 9.21638 15.6033 10.4549C15.7023 10.5541 15.7579 10.6896 15.7579 10.8307C15.7579 10.9718 15.7023 11.107 15.6033 11.2062C15.5058 11.307 15.3722 11.3633 15.2331 11.3622L15.2331 11.3622Z" fill="#434343" stroke="#434343" stroke-width="0.4"/>
<path d="M10.993 17.9998C10.0673 17.9858 9.20854 17.5076 8.6998 16.7228C8.19122 15.9379 8.09874 14.9484 8.45299 14.0805C8.80723 13.2126 9.562 12.579 10.4686 12.3888C11.3753 12.1987 12.3159 12.4765 12.9803 13.1306C13.5188 13.6611 13.8245 14.3891 13.8283 15.1509C13.832 15.9125 13.5336 16.6435 13.0004 17.1795C12.467 17.7155 11.7436 18.011 10.993 17.9998H10.993ZM10.993 13.3577C10.4434 13.3571 9.9248 13.6159 9.58992 14.0581C9.25486 14.5001 9.14181 15.0751 9.28371 15.6138C9.42559 16.1527 9.8065 16.5937 10.3141 16.8073C10.8218 17.0209 11.3985 16.9826 11.8745 16.7037C12.3505 16.4249 12.6714 15.9373 12.7431 15.3844C12.8147 14.8315 12.6287 14.2762 12.2398 13.8821C11.9115 13.5414 11.4628 13.3474 10.993 13.3435L10.993 13.3577Z" fill="#434343" stroke="#434343" stroke-width="0.4"/>
</svg>
