<svg width="22" height="22" viewBox="0 0 22 22" fill="none" xmlns="http://www.w3.org/2000/svg">
<path d="M19.8257 15.6603H7.07405C6.9734 15.6603 6.90622 15.5971 6.90622 15.5023V2.10595C6.90622 1.50558 6.36925 1 5.7316 1L2.17462 1.00022C1.53697 1.00022 1 1.50579 1 2.10617V18.9464C1 20.0839 1.97304 21 3.18109 21H19.8254C20.463 21 21 20.4944 21 19.8941V16.7345C21 16.1342 20.4633 15.6603 19.8256 15.6603L19.8257 15.6603ZM19.9933 19.9258C19.9933 20.0206 19.9261 20.0838 19.8255 20.0838H18.8187V19.4202C18.8187 19.1674 18.5837 18.9464 18.3155 18.9464C18.047 18.9464 17.8122 19.1677 17.8122 19.4202V20.0838H15.4967V18.3778C15.4967 18.125 15.2617 17.904 14.9934 17.904C14.725 17.904 14.4902 18.1252 14.4902 18.3778V20.0838H12.1075V19.4202C12.1075 19.1674 11.8725 18.9464 11.6043 18.9464C11.3358 18.9464 11.101 19.1677 11.101 19.4202V20.0838H8.75207V18.3778C8.75207 18.125 8.51705 17.904 8.24881 17.904C7.98032 17.904 7.74555 18.1252 7.74555 18.3778V20.0838H5.39662V19.4202C5.39662 19.1674 5.1616 18.9464 4.89335 18.9464C4.62487 18.9464 4.39009 19.1677 4.39009 19.4202V20.0838H3.21548C2.57783 20.0838 2.04086 19.5783 2.04086 18.9779V17.7772H3.08107C3.34956 17.7772 3.58433 17.5559 3.58433 17.3034C3.58433 17.0506 3.34932 16.8295 3.08107 16.8295H2.04086V14.6494H4.18851C4.457 14.6494 4.69177 14.4281 4.69177 14.1756C4.69177 13.9228 4.45676 13.7017 4.18851 13.7017H2.04086V11.4584H3.08107C3.34956 11.4584 3.58433 11.2371 3.58433 10.9845C3.58433 10.7317 3.34932 10.5107 3.08107 10.5107H2.04086V8.29907H4.18851C4.457 8.29907 4.69177 8.0778 4.69177 7.82524C4.69177 7.57244 4.45676 7.3514 4.18851 7.3514H2.04086V5.13979H3.08107C3.34956 5.13979 3.58433 4.91851 3.58433 4.66595C3.58433 4.41316 3.34932 4.19211 3.08107 4.19211H2.04086V2.13853C2.04086 2.04377 2.10804 1.98051 2.20869 1.98051H5.76568C5.86634 1.98051 5.93351 2.04377 5.93351 2.13853V15.5033C5.93351 16.1037 6.47048 16.6093 7.10813 16.6093H19.8598C19.9605 16.6093 20.0276 16.6725 20.0276 16.7673L20.0269 19.9259L19.9933 19.9258Z" fill="#434343" stroke="#434343" stroke-width="0.2"/>
</svg>
