<svg width="24" height="15" viewBox="0 0 24 15" fill="none" xmlns="http://www.w3.org/2000/svg">
<path d="M5.5 8C6.87917 8 8 6.87803 8 5.50039C8 4.121 6.87898 3 5.5 3C4.1218 3 3 4.1212 3 5.50039C2.99981 6.8773 4.1216 8 5.5 8V8ZM5.5 3.84583C6.41256 3.84583 7.15338 4.58749 7.15338 5.49947C7.15338 6.41048 6.41261 7.15233 5.5 7.15233C4.58913 7.15233 3.84662 6.41067 3.84662 5.49947C3.84643 4.58768 4.58894 3.84583 5.5 3.84583V3.84583Z" fill="#434343" stroke="#434343" stroke-width="0.4"/>
<path d="M23 9.13733C23 9.13102 22.9969 9.0879 22.9969 9.0879C22.6695 6.42631 21.1065 2.58244 17.7044 2.58244H9.83599C9.22174 2.58244 8.72168 3.08748 8.72168 3.707V8.7445H1.77759V1.39267C1.77759 1.176 1.60263 1 1.3888 1C1.17339 1 1 1.176 1 1.39267V13.6073C1 13.824 1.17339 14 1.3888 14C1.60263 14 1.77759 13.824 1.77759 13.6073V12.163H22.2211V13.6073C22.2211 13.824 22.3961 14 22.6099 14C22.8253 14 22.9987 13.824 22.9987 13.6073L22.998 11.7767C22.998 11.7767 22.9987 11.7735 22.9987 11.7704V9.13719L23 9.13733ZM9.49964 3.70734C9.49964 3.52118 9.65047 3.36814 9.83636 3.36814H17.7047C21.0032 3.36814 21.9232 7.48984 22.1597 8.74414L9.5 8.74397L9.49964 3.70734ZM1.77796 11.3778V9.52911H22.2215V11.3778H1.77796Z" fill="#434343" stroke="#434343" stroke-width="0.4"/>
</svg>
