<svg width="28" height="28" viewBox="0 0 28 28" fill="none" xmlns="http://www.w3.org/2000/svg">
<path d="M14 0C6.27863 0 0 6.27863 0 14C0 21.7214 6.27863 28 14 28C21.7214 28 28 21.7214 28 14C28 6.27863 21.7214 0 14 0ZM22.1489 10.126L12.7443 19.5305C12.4905 19.9179 12.0763 20.1585 11.6088 20.1585C11.1681 20.1585 10.727 19.9313 10.4733 19.5574L5.85107 14.9486C5.59731 14.6948 5.46373 14.3609 5.46373 14C5.46373 13.6392 5.59731 13.3053 5.85107 13.0515C6.372 12.5306 7.21382 12.5306 7.73473 13.0515L11.5953 16.9121L20.2648 8.24264C20.5051 7.98889 20.8525 7.84188 21.1999 7.84188C21.5607 7.84188 21.8947 7.98889 22.1485 8.24264C22.4022 8.48298 22.5358 8.81695 22.5358 9.17776C22.5358 9.53856 22.4022 9.87253 22.1485 10.1263L22.1489 10.126Z" fill="#62D086"/>
</svg>
